<svg width="480" height="480" version="1.1"
     xmlns="http://www.w3.org/2000/svg" xmlns:xlink="http://www.w3.org/1999/xlink" font-size="24px" color="black">

<script type="application/ecmascript">
    <![CDATA[

document.addEventListener('DOMContentLoaded', function(event) {
  const icons = document.children[0].getElementsByTagName("svg");

  for (let i = 0; i < icons.length; i++) {
    icons[i].setAttribute("x", (i%10)+"em");
    icons[i].setAttribute("y", Math.floor(i/10)+"em");
  }
  document.children[0].classList.add("preview");
});

    ]]>
  </script>

<style type="text/css">
  <![CDATA[
    .heavy .icon-default { stroke-width: 2 }
    .heavy .icon-21 { stroke-width: 1.75 }
    .heavy .icon-32 { stroke-width: 2.667 }
    .heavy .icon-512 { stroke-width: 42.667 }

    .icon-default { stroke-width: 1.6 }
    .icon-21 { stroke-width: 1.5 }
    .icon-32 { stroke-width: 2.13 }
    .icon-512 { stroke-width: 34.13 }
]]>
</style>

<svg id="add-map" class="icon-default icon-tabler-map-plus" width="1em" height="1em" viewBox="0 0 24 24" stroke="currentColor" fill="none" stroke-linecap="round" stroke-linejoin="round">
   <path stroke="none" d="M0 0h24v24H0z" fill="none"></path>
   <path d="M12 18.5l-3 -1.5l-6 3v-13l6 -3l6 3l6 -3v8.5"></path>
   <path d="M9 4v13"></path>
   <path d="M15 7v8"></path>
   <path d="M16 19h6"></path>
   <path d="M19 16v6"></path>
</svg>

<svg id="chevron-right" class="icon-default icon-tabler-chevron-right" width="1em" height="1em" viewBox="0 0 24 24" stroke="currentColor" fill="none" stroke-linecap="round" stroke-linejoin="round">
   <path stroke="none" d="M0 0h24v24H0z" fill="none"></path>
   <path d="M9 6l6 6l-6 6"></path>
</svg>

<svg id="chevron-left" class="icon-default icon-tabler-chevron-left" width="1em" height="1em" viewBox="0 0 24 24" stroke="currentColor" fill="none" stroke-linecap="round" stroke-linejoin="round">
   <path stroke="none" d="M0 0h24v24H0z" fill="none"></path>
   <path d="M15 6l-6 6l6 6"></path>
</svg>

<!-- https://github.com/phosphor-icons/core/blob/main/raw/regular/chart-line.svg -->
<svg id="graph-line" class="icon-512" width="1em" height="1em" viewBox="0 0 512 512">
  <polyline points="448 416 64 416 64 96" fill="none" stroke="currentColor" stroke-linecap="round" stroke-linejoin="round"/>
  <polyline points="448 192 320 304 192 208 64 320" fill="none" stroke="currentColor" stroke-linecap="round" stroke-linejoin="round"/>
</svg>

<!-- from icones.js.org - for i in *.svg; do echo;echo;echo "<- $i ->" ;cat "$i"; done -->

<!-- ci-download.svg -->
<svg id="download" class="icon-default" width="1em" height="1em" viewBox="0 0 24 24"><path fill="none" stroke="currentColor" stroke-linecap="round" stroke-linejoin="round" d="M6 21h12M12 3v14m0 0l5-5m-5 5l-5-5"/></svg>

<!-- ci-trash-full.svg -->
<svg id="discard" class="icon-default" width="1em" height="1em" viewBox="0 0 24 24"><path fill="none" stroke="currentColor" stroke-linecap="round" stroke-linejoin="round" d="M14 10v7m-4-7v7M6 6v11.8c0 1.12 0 1.68.218 2.108a2 2 0 0 0 .874.874c.427.218.987.218 2.105.218h5.606c1.118 0 1.677 0 2.104-.218c.377-.192.683-.498.875-.874c.218-.428.218-.987.218-2.105V6M6 6h2M6 6H4m4 0h8M8 6c0-.932 0-1.398.152-1.765a2 2 0 0 1 1.082-1.083C9.602 3 10.068 3 11 3h2c.932 0 1.398 0 1.765.152a2 2 0 0 1 1.083 1.083C16 4.602 16 5.068 16 6m0 0h2m0 0h2"/></svg>

<!-- Significatly altered; previous used fluent-my-location-24-regular.svg -->
<svg id="gps-location" class="icon-default icon-tabler-current-location" width="1em" height="1em" viewBox="-2 -2 28 28" stroke="currentColor" fill="none" stroke-linecap="round" stroke-linejoin="round">
  <circle cx="12" cy="12" r="4.8" fill="currentColor" stroke="none" />
  <path d="M12 12m-8 0a8 8 0 1 0 16 0a8 8 0 1 0 -16 0" />
  <path d="M12 4l0 -3" />
  <path d="M12 20l0 3" />
  <path d="M20 12l3 0" />
  <path d="M4 12l-3 0" />
</svg>

<svg id="gps-location-off" class="icon-default icon-tabler-current-location-off" width="1em" height="1em" viewBox="-2 -2 28 28" stroke="currentColor" fill="none" stroke-linecap="round" stroke-linejoin="round">
  <path d="M6.357 6.33a8 8 0 1 0 11.301 11.326m1.642 -2.378a8 8 0 0 0 -10.597 -10.569" />
  <path d="M12 4l0 -3" />
  <path d="M12 20l0 3" />
  <path d="M20 12l3 0" />
  <path d="M4 12l-3 0" />
  <path d="M3 3l18 18" />
</svg>

<!-- humbleicons-search.svg -->
<svg id="search" class="icon-default" width="1em" height="1em" viewBox="0 0 24 24"><g fill="none" stroke="currentColor"><path stroke-linecap="round" d="m20 20l-6-6"/><path d="M15 9.5a5.5 5.5 0 1 1-11 0a5.5 5.5 0 0 1 11 0Z"/></g></svg>

<!-- iconamoon-eye-off.svg -->
<svg id="eye-slash" class="icon-default" width="1em" height="1em" viewBox="0 0 24 24"><g fill="none" stroke="currentColor" stroke-linecap="round"><path stroke-linejoin="round" d="M10.73 5.073A10.96 10.96 0 0 1 12 5c4.664 0 8.4 2.903 10 7a11.595 11.595 0 0 1-1.555 2.788M6.52 6.519C4.48 7.764 2.9 9.693 2 12c1.6 4.097 5.336 7 10 7a10.44 10.44 0 0 0 5.48-1.52m-7.6-7.6a3 3 0 1 0 4.243 4.243"/><path d="m4 4l16 16"/></g></svg>

<!-- iconamoon-eye.svg -->
<svg id="eye" class="icon-default" width="1em" height="1em" viewBox="0 0 24 24"><g fill="none" stroke="currentColor" stroke-linecap="round" stroke-linejoin="round"><path d="M15 12a3 3 0 1 1-6 0a3 3 0 0 1 6 0Z"/><path d="M2 12c1.6-4.097 5.336-7 10-7s8.4 2.903 10 7c-1.6 4.097-5.336 7-10 7s-8.4-2.903-10-7Z"/></g></svg>

<!-- iconamoon-sorting-left.svg -->
<svg id="sort" class="icon-default" width="1em" height="1em" viewBox="0 0 24 24"><path fill="none" stroke="currentColor" stroke-linecap="round" stroke-linejoin="round" d="M4 6h16M4 12h10M4 18h4"/></svg>

<!-- iconoir-graph-up.svg -->
<svg id="graph-2" class="icon-default" width="1em" height="1em" viewBox="0 0 24 24"><g fill="none" stroke="currentColor" stroke-linecap="round" stroke-linejoin="round"><path d="M20 20H4V4"/><path d="M4 16.5L12 9l3 3l4.5-4.5"/></g></svg>

<!-- iconoir-add-pin-alt.svg -->
<svg id="add-pin" class="icon-default" width="1em" height="1em" viewBox="0 0 24 24"><g fill="none" stroke="currentColor"><path d="M16 9.2C16 13.177 9 20 9 20S2 13.177 2 9.2C2 5.224 5.134 2 9 2s7 3.224 7 7.2Z"/><path fill="currentColor" stroke-linecap="round" stroke-linejoin="round" d="M9 10a1 1 0 1 0 0-2a1 1 0 0 0 0 2Z"/><path stroke-linecap="round" stroke-linejoin="round" d="M16 19h3m3 0h-3m0 0v-3m0 3v3"/></g></svg>

<!-- iconoir-pin-alt.svg -->
<svg id="pin" class="icon-default" width="1em" height="1em" viewBox="0 0 24 24"><g fill="none" stroke="currentColor"><path d="M20 10c0 4.418-8 12-8 12s-8-7.582-8-12a8 8 0 1 1 16 0Z"/><path fill="currentColor" stroke-linecap="round" stroke-linejoin="round" d="M12 11a1 1 0 1 0 0-2a1 1 0 0 0 0 2Z"/></g></svg>

<!-- iconoir-save-floppy-disk.svg -->
<svg id="save" class="icon-21" width="1em" height="1em" viewBox="0 0 24 24"><g fill="none" stroke="currentColor"><path d="M3 19V5a2 2 0 0 1 2-2h11.172a2 2 0 0 1 1.414.586l2.828 2.828A2 2 0 0 1 21 7.828V19a2 2 0 0 1-2 2H5a2 2 0 0 1-2-2Z"/><path d="M8.6 9h6.8a.6.6 0 0 0 .6-.6V3.6a.6.6 0 0 0-.6-.6H8.6a.6.6 0 0 0-.6.6v4.8a.6.6 0 0 0 .6.6ZM6 13.6V21h12v-7.4a.6.6 0 0 0-.6-.6H6.6a.6.6 0 0 0-.6.6Z"/></g></svg>

<!-- ion-archive-outline.svg -->
<svg id="archive" class="icon-512" width="1em" height="1em" viewBox="0 0 512 512" fill="none" stroke="currentColor" stroke-linecap="round" stroke-linejoin="round">
  <path d="M80 152v256a40.12 40.12 0 0 0 40 40h272a40.12 40.12 0 0 0 40-40V152"/>
  <rect width="416" height="80" x="48" y="64" rx="28" ry="28"/>
  <path d="m320 304l-64 64l-64-64m64 41.89V224"/>
</svg>

<!-- ion-arrow-back.svg -->
<svg id="old-back" class="icon-512" width="1em" height="1em" viewBox="0 0 512 512">
  <path fill="none" stroke="currentColor" stroke-linecap="round" stroke-linejoin="round" d="M244 400L100 256l144-144M120 256h292"/>
</svg>

<svg id="back" class="icon-default icon-tabler-arrow-left" width="1em" height="1em" viewBox="0 0 24 24" stroke="currentColor" fill="none" stroke-linecap="round" stroke-linejoin="round">
  <path d="M5 12l14 0 M5 12l6 6 M5 12l6 -6" />
</svg>

<!-- ion-close-circle-outline.svg -->
<svg id="circle-x" class="icon-512" width="1em" height="1em" viewBox="0 0 512 512" fill="none" stroke="currentColor" stroke-linecap="round" stroke-linejoin="round">
  <path d="M448 256c0-106-86-192-192-192S64 150 64 256s86 192 192 192s192-86 192-192Z"/>
  <path d="M320 320L192 192m0 128l128-128"/>
</svg>

<!-- ion-settings-outline.svg -->
<svg id="settings" class="icon-512" width="1em" height="1em" viewBox="0 0 512 512"><path fill="none" stroke="currentColor" stroke-linecap="round" stroke-linejoin="round" d="M262.29 192.31a64 64 0 1 0 57.4 57.4a64.13 64.13 0 0 0-57.4-57.4ZM416.39 256a154.34 154.34 0 0 1-1.53 20.79l45.21 35.46a10.81 10.81 0 0 1 2.45 13.75l-42.77 74a10.81 10.81 0 0 1-13.14 4.59l-44.9-18.08a16.11 16.11 0 0 0-15.17 1.75A164.48 164.48 0 0 1 325 400.8a15.94 15.94 0 0 0-8.82 12.14l-6.73 47.89a11.08 11.08 0 0 1-10.68 9.17h-85.54a11.11 11.11 0 0 1-10.69-8.87l-6.72-47.82a16.07 16.07 0 0 0-9-12.22a155.3 155.3 0 0 1-21.46-12.57a16 16 0 0 0-15.11-1.71l-44.89 18.07a10.81 10.81 0 0 1-13.14-4.58l-42.77-74a10.8 10.8 0 0 1 2.45-13.75l38.21-30a16.05 16.05 0 0 0 6-14.08c-.36-4.17-.58-8.33-.58-12.5s.21-8.27.58-12.35a16 16 0 0 0-6.07-13.94l-38.19-30A10.81 10.81 0 0 1 49.48 186l42.77-74a10.81 10.81 0 0 1 13.14-4.59l44.9 18.08a16.11 16.11 0 0 0 15.17-1.75A164.48 164.48 0 0 1 187 111.2a15.94 15.94 0 0 0 8.82-12.14l6.73-47.89A11.08 11.08 0 0 1 213.23 42h85.54a11.11 11.11 0 0 1 10.69 8.87l6.72 47.82a16.07 16.07 0 0 0 9 12.22a155.3 155.3 0 0 1 21.46 12.57a16 16 0 0 0 15.11 1.71l44.89-18.07a10.81 10.81 0 0 1 13.14 4.58l42.77 74a10.8 10.8 0 0 1-2.45 13.75l-38.21 30a16.05 16.05 0 0 0-6.05 14.08c.33 4.14.55 8.3.55 12.47Z"/></svg>

<!-- lucide-clock-4.svg -->
<svg id="clock" class="icon-default" width="1em" height="1em" viewBox="0 0 24 24"><g fill="none" stroke="currentColor" stroke-linecap="round" stroke-linejoin="round"><circle cx="12" cy="12" r="10"/><path d="M12 6v6l4 2"/></g></svg>

<!-- lucide-map-pin.svg -->
<svg id="pin-3" class="icon-default" width="1em" height="1em" viewBox="0 0 24 24"><g fill="none" stroke="currentColor" stroke-linecap="round" stroke-linejoin="round"><path d="M20 10c0 6-8 12-8 12s-8-6-8-12a8 8 0 0 1 16 0Z"/><circle cx="12" cy="10" r="3"/></g></svg>

<!-- lucide-pencil.svg -->
<svg id="edit" class="icon-default" width="1em" height="1em" viewBox="-1 -1 26 26"><path fill="none" stroke="currentColor" stroke-linecap="round" stroke-linejoin="round" d="M17 3a2.85 2.83 0 1 1 4 4L7.5 20.5L2 22l1.5-5.5Zm-2 2l4 4"/></svg>

<!-- majesticons-map-marker-line.svg -->
<svg id="pin-4" class="icon-default" width="1em" height="1em" viewBox="0 0 24 24"><g fill="none" stroke="currentColor" stroke-linecap="round" stroke-linejoin="round"><path d="M19 10c0 3.976-7 11-7 11s-7-7.024-7-11s3.134-7 7-7s7 3.024 7 7z"/><circle cx="12" cy="10" r="3"/></g></svg>

<!-- quill-folder-add.svg -->
<svg id="add-folder" class="icon-32" width="1em" height="1em" viewBox="0 0 32 32"><path fill="none" stroke="currentColor" stroke-linecap="round" d="M16 21v-8m-4 4h8m8 7V11c0-1.105-.892-2-1.997-2H17c-2 0-2-3-5-3H6a2 2 0 0 0-2 2v16a2 2 0 0 0 2 2h20a2 2 0 0 0 2-2Z"/></svg>

<!-- quill-folder-open.svg -->
<svg id="open-folder" class="icon-32" width="1em" height="1em" viewBox="0 0 32 32"><path fill="none" stroke="currentColor" stroke-linecap="round" d="M4 26V8a2 2 0 0 1 2-2h6c3 0 3 3 5 3h7a2 2 0 0 1 2 2v2M4 26l3.783-12.294A1 1 0 0 1 8.739 13H26M4 26h19.523a2 2 0 0 0 1.911-1.412l3.168-10.294A1 1 0 0 0 27.646 13H26"/></svg>

<!-- quill-folder.svg -->
<svg id="folder" class="icon-32" width="1em" height="1em" viewBox="0 0 32 32"><path fill="none" stroke="currentColor" stroke-linecap="round" d="M28 11v13a2 2 0 0 1-2 2H6a2 2 0 0 1-2-2V8a2 2 0 0 1 2-2h6c3 0 3 3 5 3h9.003C27.108 9 28 9.895 28 11Z"/></svg>

<!-- solar-layers-linear.svg -->
<svg id="layers" class="icon-21" width="1em" height="1em" viewBox="0 0 24 24">
  <g fill="none" stroke="currentColor">
    <path d="M4.979 9.685C2.993 8.891 2 8.494 2 8s.993-.89 2.979-1.685l2.808-1.123C9.773 4.397 10.767 4 12 4c1.234 0 2.227.397 4.213 1.192l2.808 1.123C21.007 7.109 22 7.506 22 8s-.993.89-2.979 1.685l-2.808 1.123C14.227 11.604 13.233 12 12 12c-1.234 0-2.227-.397-4.213-1.191L4.98 9.684Z"/>
    <path d="m5.766 10l-.787.315C2.993 11.109 2 11.507 2 12c0 .493.993.89 2.979 1.685l2.808 1.123C9.773 15.604 10.767 16 12 16c1.234 0 2.227-.397 4.213-1.191l2.808-1.124C21.007 12.891 22 12.493 22 12c0-.493-.993-.89-2.979-1.685L18.234 10"/>
    <path d="m5.766 14l-.787.315C2.993 15.109 2 15.507 2 16c0 .494.993.89 2.979 1.685l2.808 1.123C9.773 19.604 10.767 20 12 20c1.234 0 2.227-.397 4.213-1.192l2.808-1.123C21.007 16.891 22 16.494 22 16c0-.493-.993-.89-2.979-1.685L18.234 14"/>
  </g>
</svg>

<!-- tabler-check.svg -->
<svg id="accept" class="icon-default" width="1em" height="1em" viewBox="0 0 24 24"><path fill="none" stroke="currentColor" stroke-linecap="round" stroke-linejoin="round" d="m5 12l5 5L20 7"/></svg>

<!-- tabler-x.svg -->
<svg id="cancel" class="icon-default" width="1em" height="1em" viewBox="0 0 24 24"><path fill="none" stroke="currentColor" stroke-linecap="round" stroke-linejoin="round" d="M18 6L6 18M6 6l12 12"/></svg>

<!-- tabler-chevron-down.svg -->
<svg id="chevron-down" class="icon-default" width="1em" height="1em" viewBox="0 0 24 24"><path fill="none" stroke="currentColor" stroke-linecap="round" stroke-linejoin="round" d="m6 9l6 6l6-6"/></svg>

<!-- tabler-chevron-up.svg -->
<svg id="chevron-up" class="icon-default" width="1em" height="1em" viewBox="0 0 24 24"><path fill="none" stroke="currentColor" stroke-linecap="round" stroke-linejoin="round" d="m6 15l6-6l6 6"/></svg>

<!-- tabler-plus.svg -->
<svg id="add" class="icon-default" width="1em" height="1em" viewBox="0 0 24 24"><path fill="none" stroke="currentColor" stroke-linecap="round" stroke-linejoin="round" d="M12 5v14m-7-7h14"/></svg>

<!-- tabler-cloud-off.svg -->
<svg id="offline" class="icon-default" width="1em" height="1em" viewBox="0 0 24 24"><path fill="none" stroke="currentColor" stroke-linecap="round" stroke-linejoin="round" d="M9.58 5.548c.24-.11.492-.207.752-.286c1.88-.572 3.956-.193 5.444 1c1.488 1.19 2.162 3.007 1.77 4.769h.99c1.913 0 3.464 1.56 3.464 3.486c0 .957-.383 1.824-1.003 2.454M18 18.004H6.657C4.085 18 2 15.993 2 13.517c0-2.475 2.085-4.482 4.657-4.482c.13-.582.37-1.128.7-1.62M3 3l18 18"/></svg>

<!-- tabler-dots-vertical.svg -->
<svg id="overflow" class="icon-default" width="1em" height="1em" viewBox="0 0 24 24"><path fill="none" stroke="currentColor" stroke-linecap="round" stroke-linejoin="round" d="M11 12a1 1 0 1 0 2 0a1 1 0 1 0-2 0m0 7a1 1 0 1 0 2 0a1 1 0 1 0-2 0m0-14a1 1 0 1 0 2 0a1 1 0 1 0-2 0"/></svg>

<!-- tabler-map-pin.svg -->
<svg id="fold-map-pin" class="icon-default" width="1em" height="1em" viewBox="0 0 24 24"><path fill="none" stroke="currentColor" stroke-linecap="round" stroke-linejoin="round" d="M12 18.5L9 17l-6 3V7l6-3l6 3l6-3v7M9 4v13m6-10v5m6.121 8.121a3 3 0 1 0-4.242 0c.418.419 1.125 1.045 2.121 1.879c1.051-.89 1.759-1.516 2.121-1.879zM19 18v.01"/></svg>

<!-- tabler-map.svg -->
<svg id="fold-map" class="icon-default" width="1em" height="1em" viewBox="0 0 24 24"><path fill="none" stroke="currentColor" stroke-linecap="round" stroke-linejoin="round" d="m3 7l6-3l6 3l6-3v13l-6 3l-6-3l-6 3V7m6-3v13m6-10v13"/></svg>

<!-- tabler-phone.svg -->
<svg id="phone" class="icon-default" width="1em" height="1em" viewBox="0 0 24 24"><path fill="none" stroke="currentColor" stroke-linecap="round" stroke-linejoin="round" d="M5 4h4l2 5l-2.5 1.5a11 11 0 0 0 5 5L15 13l5 2v4a2 2 0 0 1-2 2A16 16 0 0 1 3 6a2 2 0 0 1 2-2"/></svg>

<!-- tabler-player-pause.svg -->
<svg id="pause" class="icon-default" width="1em" height="1em" viewBox="0 0 24 24"><path fill="none" stroke="currentColor" stroke-linecap="round" stroke-linejoin="round" d="M6 6a1 1 0 0 1 1-1h2a1 1 0 0 1 1 1v12a1 1 0 0 1-1 1H7a1 1 0 0 1-1-1zm8 0a1 1 0 0 1 1-1h2a1 1 0 0 1 1 1v12a1 1 0 0 1-1 1h-2a1 1 0 0 1-1-1z"/></svg>

<!-- tabler-player-record.svg -->
<svg id="record" class="icon-default" width="1em" height="1em" viewBox="0 0 24 24"><path fill="none" stroke="currentColor" stroke-linecap="round" stroke-linejoin="round" d="M5 12a7 7 0 1 0 14 0a7 7 0 1 0-14 0"/></svg>

<!-- tabler-player-stop.svg -->
<svg id="stop" class="icon-default" width="1em" height="1em" viewBox="0 0 24 24"><path fill="none" stroke="currentColor" stroke-linecap="round" stroke-linejoin="round" d="M5 7a2 2 0 0 1 2-2h10a2 2 0 0 1 2 2v10a2 2 0 0 1-2 2H7a2 2 0 0 1-2-2z"/></svg>

<!-- tabler-route.svg -->
<svg id="track" class="icon-default" width="1em" height="1em" viewBox="0 0 24 24"><path fill="none" stroke="currentColor" stroke-linecap="round" stroke-linejoin="round" d="M4 19a2 2 0 1 0 4 0a2 2 0 1 0-4 0M16 5a2 2 0 1 0 4 0a2 2 0 1 0-4 0m-4 14h4.5a3.5 3.5 0 0 0 0-7h-8a3.5 3.5 0 0 1 0-7H12"/></svg>

<!-- tabler-world.svg -->
<svg id="globe" class="icon-default" width="1em" height="1em" viewBox="0 0 24 24"><g fill="none" stroke="currentColor" stroke-linecap="round" stroke-linejoin="round"><path d="M3 12a9 9 0 1 0 18 0a9 9 0 0 0-18 0m.6-3h16.8M3.6 15h16.8"/><path d="M11.5 3a17 17 0 0 0 0 18m1-18a17 17 0 0 1 0 18"/></g></svg>

<!-- majesticons:edit-pen-4-line -->
<svg id="draw-track" class="icon-default" width="1em" height="1em" viewBox="0 0 24 24"><path fill="none" stroke="currentColor" stroke-linecap="round" stroke-linejoin="round" d="m16 5l2.293-2.293a1 1 0 0 1 1.414 0l1.586 1.586a1 1 0 0 1 0 1.414L19 8m-3-3l-5.707 5.707a1 1 0 0 0-.293.707V13a1 1 0 0 0 1 1h1.586a1 1 0 0 0 .707-.293L19 8m-3-3l3 3M6 14H5a2 2 0 0 0-2 2v0a2 2 0 0 0 2 2h14a2 2 0 0 1 2 2v0a2 2 0 0 1-2 2h-4"/></svg>

<!-- lucide:text-cursor-input -->
<svg id="textbox" class="icon-default" width="1em" height="1em" viewBox="0 0 24 24"><path fill="none" stroke="currentColor" stroke-linecap="round" stroke-linejoin="round" d="M5 4h1a3 3 0 0 1 3 3a3 3 0 0 1 3-3h1m0 16h-1a3 3 0 0 1-3-3a3 3 0 0 1-3 3H5m0-4H4a2 2 0 0 1-2-2v-4a2 2 0 0 1 2-2h1m8 0h7a2 2 0 0 1 2 2v4a2 2 0 0 1-2 2h-7M9 7v10"/></svg>

<!-- filled icon -->
<svg id="compass" width="1em" height="1em" viewBox="0 0 24 24">
  <path fill="#D8263E" d="M17,10L12,2L7,10H17Z"/>
  <path fill="currentColor" d="M7,22V12H9.5L15,19.3333V12H17V22H14.5L9,14.6667V22H7Z"/>
</svg>

<!-- now using a filled icon from github.com/ionic-team/ionicons; was: icon-park-outline:knife-fork -->
<svg id="food" width="1em" height="1em" viewBox="0 0 512 512">
  <path transform="translate(-75, 0)" d="M320 166c0-43.2-15-93.2-24-133.7V32h-8l-.2 116.9c0 6.1-2.9 11.1-9 11.1-5.7 0-8-4.3-8.6-9.9-.1-.4 0-.8 0-1.2L259.9 32h-8l-9 117-.1 1.1c-.6 5.6-3.7 9.9-9.5 9.9-6.1 0-9.1-5-9.1-11.1L223.8 32h-8C207 73 192 122.9 192 166.1c0 25.7 14.6 48.1 36.7 58.2 11.2 5.1 11.3 10.3 11.3 10.3s-16 201.7-16 213.1c0 11.4 4 18.5 9.5 24s14.2 8.2 22.4 8.2h.4c8.2 0 16.8-2.7 22.4-8.2 5.5-5.5 9.3-10.9 9.3-24s-16-213.1-16-213.1-1-5 11.4-10.6c21.6-9.8 36.6-32.2 36.6-58z" fill="currentColor"/>
  <path transform="translate(75, 0)" d="M285.7 32c-3.3 0-6 1.4-8 3.8C259 58.7 224 116.1 224 250.1c0 39.2 33 39.2 32 69.4v.4c-2 47.1-14.9 111.1-16 130.3-.4 15.2 9.7 29.8 24.1 29.8h.4c14.4 0 23.5-14.4 23.5-29.6V38.3c0-5-.5-6.3-2.3-6.3z" fill="currentColor"/>
</svg>

<svg id="road" class="icon-default icon-tabler-road" width="1em" height="1em" viewBox="0 0 24 24" stroke="currentColor" fill="none" stroke-linecap="round" stroke-linejoin="round">
   <path stroke="none" d="M0 0h24v24H0z" fill="none"></path>
   <path d="M4 19l4 -14"></path>
   <path d="M16 5l4 14"></path>
   <path d="M12 8v-2"></path>
   <path d="M12 13v-2"></path>
   <path d="M12 18v-2"></path>
</svg>

<!-- lucide:satellite-dish -->
<svg id="satellite" class="icon-default" width="1em" height="1em" viewBox="0 0 24 24"><path fill="none" stroke="currentColor" stroke-linecap="round" stroke-linejoin="round" d="M4 10a7.31 7.31 0 0 0 10 10Zm5 5l3-3m5 1a6 6 0 0 0-6-6m10 6A10 10 0 0 0 11 3"/></svg>

<svg id="car" class="icon-default icon-tabler-car" width="1em" height="1em" viewBox="0 0 24 24" stroke="currentColor" fill="none" stroke-linecap="round" stroke-linejoin="round">
   <path stroke="none" d="M0 0h24v24H0z" fill="none"></path>
   <path d="M7 17m-2 0a2 2 0 1 0 4 0a2 2 0 1 0 -4 0"></path>
   <path d="M17 17m-2 0a2 2 0 1 0 4 0a2 2 0 1 0 -4 0"></path>
   <path d="M5 17h-2v-6l2 -5h9l4 5h1a2 2 0 0 1 2 2v4h-2m-4 0h-6m-6 -6h15m-6 0v-5"></path>
</svg>

<svg id="bike" class="icon-default icon-tabler-bike" width="1em" height="1em" viewBox="0 0 24 24" stroke="currentColor" fill="none" stroke-linecap="round" stroke-linejoin="round">
   <path stroke="none" d="M0 0h24v24H0z" fill="none"></path>
   <path d="M5 18m-3 0a3 3 0 1 0 6 0a3 3 0 1 0 -6 0"></path>
   <path d="M19 18m-3 0a3 3 0 1 0 6 0a3 3 0 1 0 -6 0"></path>
   <path d="M12 19l0 -4l-3 -3l5 -4l2 3l3 0"></path>
   <path d="M17 5m-1 0a1 1 0 1 0 2 0a1 1 0 1 0 -2 0"></path>
</svg>

<svg id="walk" class="icon-default icon-tabler-walk" width="1em" height="1em" viewBox="0 0 24 24" stroke="currentColor" fill="none" stroke-linecap="round" stroke-linejoin="round">
   <path stroke="none" d="M0 0h24v24H0z" fill="none"></path>
   <path d="M13 4m-1 0a1 1 0 1 0 2 0a1 1 0 1 0 -2 0"></path>
   <path d="M7 21l3 -4"></path>
   <path d="M16 21l-2 -4l-3 -3l1 -6"></path>
   <path d="M6 12l2 -3l4 -1l3 3l3 1"></path>
</svg>

<svg id="segment" class="icon-default icon-tabler-line" width="1em" height="1em" viewBox="0 0 24 24" stroke="currentColor" fill="none" stroke-linecap="round" stroke-linejoin="round">
   <path d="M6 18m-2 0a2 2 0 1 0 4 0a2 2 0 1 0 -4 0"/>
   <path d="M18 6m-2 0a2 2 0 1 0 4 0a2 2 0 1 0 -4 0"/>
   <path d="M7.5 16.5l9 -9"/>
</svg>

<svg id="plugin" class="icon-default icon-tabler-puzzle" width="1em" height="1em" viewBox="0 0 24 24" stroke="currentColor" fill="none" stroke-linecap="round" stroke-linejoin="round">
   <path stroke="none" d="M0 0h24v24H0z" fill="none"></path>
   <path d="M4 7h3a1 1 0 0 0 1 -1v-1a2 2 0 0 1 4 0v1a1 1 0 0 0 1 1h3a1 1 0 0 1 1 1v3a1 1 0 0 0 1 1h1a2 2 0 0 1 0 4h-1a1 1 0 0 0 -1 1v3a1 1 0 0 1 -1 1h-3a1 1 0 0 1 -1 -1v-1a2 2 0 0 0 -4 0v1a1 1 0 0 1 -1 1h-3a1 1 0 0 1 -1 -1v-3a1 1 0 0 1 1 -1h1a2 2 0 0 0 0 -4h-1a1 1 0 0 1 -1 -1v-3a1 1 0 0 1 1 -1"></path>
</svg>

<svg id="no-plugin" class="icon-default icon-tabler-puzzle-off" width="1em" height="1em" viewBox="0 0 24 24" stroke="currentColor" fill="none" stroke-linecap="round" stroke-linejoin="round">
   <path stroke="none" d="M0 0h24v24H0z" fill="none"></path>
   <path d="M8.18 4.171a2 2 0 0 1 3.82 .829v1a1 1 0 0 0 1 1h3a1 1 0 0 1 1 1v3a1 1 0 0 0 1 1h1a2 2 0 0 1 .819 3.825m-2.819 1.175v3a1 1 0 0 1 -1 1h-3a1 1 0 0 1 -1 -1v-1a2 2 0 1 0 -4 0v1a1 1 0 0 1 -1 1h-3a1 1 0 0 1 -1 -1v-3a1 1 0 0 1 1 -1h1a2 2 0 1 0 0 -4h-1a1 1 0 0 1 -1 -1v-3a1 1 0 0 1 1 -1h3"></path>
   <path d="M3 3l18 18"></path>
</svg>

<svg id="mountain" class="icon-default icon-tabler-mountain" width="1em" height="1em" viewBox="0 0 24 24" stroke="currentColor" fill="none" stroke-linecap="round" stroke-linejoin="round">
   <path stroke="none" d="M0 0h24v24H0z" fill="none"></path>
   <path d="M3 20h18l-6.921 -14.612a2.3 2.3 0 0 0 -4.158 0l-6.921 14.612z"></path>
   <path d="M7.5 11l2 2.5l2.5 -2.5l2 3l2.5 -2"></path>
</svg>

<svg id="arrow-narrow-up" class="icon-default icon-tabler-arrow-narrow-up" width="1em" height="1em" viewBox="0 0 24 24" stroke="currentColor" fill="none" stroke-linecap="round" stroke-linejoin="round">
   <path stroke="none" d="M0 0h24v24H0z" fill="none"></path>
   <path d="M12 5l0 14"></path>
   <path d="M16 9l-4 -4"></path>
   <path d="M8 9l4 -4"></path>
</svg>

<svg id="directions" class="icon-default icon-tabler-direction-sign" width="1em" height="1em" viewBox="0 0 24 24" stroke="currentColor" fill="none" stroke-linecap="round" stroke-linejoin="round">
   <path stroke="none" d="M0 0h24v24H0z" fill="none"></path>
   <path d="M3.32 12.774l7.906 7.905c.427 .428 1.12 .428 1.548 0l7.905 -7.905a1.095 1.095 0 0 0 0 -1.548l-7.905 -7.905a1.095 1.095 0 0 0 -1.548 0l-7.905 7.905a1.095 1.095 0 0 0 0 1.548z"></path>
   <path d="M8 12h7.5"></path>
   <path d="M12 8.5l3.5 3.5l-3.5 3.5"></path>
</svg>

<!-- assembled from draw-track and pin -->
<svg id="waypoint" class="icon-default" width="1em" height="1em" viewBox="0 0 24 24">
<path fill="none" stroke="currentColor" stroke-linecap="round" stroke-linejoin="round" d="M6 14H5a2 2 0 0 0-2 2v0a2 2 0 0 0 2 2h14a2 2 0 0 1 2 2v0a2 2 0 0 1-2 2h-4"/>
<g fill="none" stroke="currentColor" stroke-width="2.64" transform="scale(0.6) translate(8,4)">
  <path d="M20 10c0 4.418-8 12-8 12s-8-7.582-8-12a8 8 0 1 1 16 0Z"/>
  <path fill="currentColor" stroke-linecap="round" stroke-linejoin="round" d="M12 11a1 1 0 1 0 0-2a1 1 0 0 0 0 2Z"/>
</g>
</svg>

<svg id="crosshair" class="icon-default icon-tabler-crosshair" width="1em" height="1em" viewBox="0 0 24 24">
  <g stroke="currentColor" fill="none" stroke-linecap="round" stroke-linejoin="round">
    <path d="M4 8v-2a2 2 0 0 1 2 -2h2"/>
    <path d="M4 16v2a2 2 0 0 0 2 2h2"/>
    <path d="M16 4h2a2 2 0 0 1 2 2v2"/>
    <path d="M16 20h2a2 2 0 0 0 2 -2v-2"/>
    <path d="M9 12l6 0"/>
    <path d="M12 9l0 6"/>
  </g>
</svg>

<svg id="map-question" class="icon-default icon-tabler-map-question" width="1em" height="1em" viewBox="0 0 24 24" stroke="currentColor" fill="none" stroke-linecap="round" stroke-linejoin="round">
   <path d="M15 20l-6 -3l-6 3v-13l6 -3l6 3l6 -3v7.5"></path>
   <path d="M9 4v13"></path>
   <path d="M15 7v5.5"></path>
   <path d="M19 22v.01"></path>
   <path d="M19 19a2.003 2.003 0 0 0 .914 -3.782a1.98 1.98 0 0 0 -2.414 .483"></path>
</svg>

<svg id="opacity" class="icon-default" width="1em" height="1em" viewBox="0 0 24 24">
  <g stroke="currentColor" fill="none" stroke-linecap="round" stroke-linejoin="round">
     <circle cx="9.5" cy="9.5" r="7" fill="none" />
     <circle cx="14.5" cy="14.5" r="7" fill="currentColor" fill-opacity="0.75" />
  </g>
</svg>

<svg id="measure" class="icon-default icon-tabler-ruler-measure" width="1em" height="1em" viewBox="0 0 24 24" stroke="currentColor" fill="none" stroke-linecap="round" stroke-linejoin="round">
   <path d="M19.875 12c.621 0 1.125 .512 1.125 1.143v5.714c0 .631 -.504 1.143 -1.125 1.143h-15.875a1 1 0 0 1 -1 -1v-5.857c0 -.631 .504 -1.143 1.125 -1.143h15.75z"></path>
   <path d="M9 12v2"></path>
   <path d="M6 12v3"></path>
   <path d="M12 12v3"></path>
   <path d="M18 12v3"></path>
   <path d="M15 12v2"></path>
   <path d="M3 3v4"></path>
   <path d="M3 5h18"></path>
   <path d="M21 3v4"></path>
</svg>

<svg id="retry" class="icon-default icon-tabler-refresh-alert" width="1em" height="1em" viewBox="0 0 24 24" stroke="currentColor" fill="none" stroke-linecap="round" stroke-linejoin="round">
   <path d="M20 11a8.1 8.1 0 0 0 -15.5 -2m-.5 -4v4h4"></path>
   <path d="M4 13a8.1 8.1 0 0 0 15.5 2m.5 4v-4h-4"></path>
   <path d="M12 9l0 3"></path>
   <path d="M12 15l.01 0"></path>
</svg>

<svg id="refresh" class="icon-default icon-tabler-refresh" width="1em" height="1em" viewBox="0 0 24 24" stroke="currentColor" fill="none" stroke-linecap="round" stroke-linejoin="round">
   <path d="M20 11a8.1 8.1 0 0 0 -15.5 -2m-.5 -4v4h4"></path>
   <path d="M4 13a8.1 8.1 0 0 0 15.5 2m.5 4v-4h-4"></path>
</svg>

<svg id="share" class="icon-default icon-tabler-share" width="1em" height="1em" viewBox="0 0 24 24" stroke="currentColor" fill="none" stroke-linecap="round" stroke-linejoin="round">
  <path d="M6 12m-3 0a3 3 0 1 0 6 0a3 3 0 1 0 -6 0" />
  <path d="M18 6m-3 0a3 3 0 1 0 6 0a3 3 0 1 0 -6 0" />
  <path d="M18 18m-3 0a3 3 0 1 0 6 0a3 3 0 1 0 -6 0" />
  <path d="M8.7 10.7l6.6 -3.4" />
  <path d="M8.7 13.3l6.6 3.4" />
</svg>

<svg id="wikipedia" width="1em" height="1em" viewBox="0 0 24 24">
  <path fill="currentColor" d="m14.97 18.95l-2.56-6.03c-1.02 1.99-2.14 4.08-3.1 6.03c-.01.01-.47 0-.47 0C7.37 15.5 5.85 12.1 4.37 8.68C4.03 7.84 2.83 6.5 2 6.5v-.45h5.06v.45c-.6 0-1.62.4-1.36 1.05c.72 1.54 3.24 7.51 3.93 9.03c.47-.94 1.8-3.42 2.37-4.47c-.45-.88-1.87-4.18-2.29-5c-.32-.54-1.13-.61-1.75-.61c0-.15.01-.25 0-.44l4.46.01v.4c-.61.03-1.18.24-.92.82c.6 1.24.95 2.13 1.5 3.28c.17-.34 1.07-2.19 1.5-3.16c.26-.65-.13-.91-1.21-.91c.01-.12.01-.33.01-.43c1.39-.01 3.48-.01 3.85-.02v.42c-.71.03-1.44.41-1.82.99L13.5 11.3c.18.51 1.96 4.46 2.15 4.9l3.85-8.83c-.3-.72-1.16-.87-1.5-.87v-.45l4 .03v.42c-.88 0-1.43.5-1.75 1.25c-.8 1.79-3.25 7.49-4.85 11.2h-.43Z"/>
</svg>

</svg>
