<svg class="reflow-icons" xmlns="http://www.w3.org/2000/svg" width="100%" height="100%">

<!-- sources:
- https://www.sjjb.co.uk/mapicons/contactsheet
- https://materialdesignicons.com
- https://labs.mapbox.com/maki-icons/ / https://github.com/mapbox/maki
- https://www.svgrepo.com
- http://map-icons.com/ / https://github.com/scottdejonge/map-icons
- https://github.com/nationalparkservice/symbol-library / https://upload.wikimedia.org/wikipedia/commons/4/48/Map_symbols_US_NPS.svg
-->

<script type="application/ecmascript">
    <![CDATA[

document.addEventListener('DOMContentLoaded', function(event) {
  const icons = document.children[0].getElementsByTagName("svg");
  const pad = 0;  //2
  let x = 0;
  let y = 0;
  let rowh = 0;
  let prevClass = "";
  for (let i = 0; i < icons.length; i++) {
    const cls = icons[i].getAttribute("class");
    const w = icons[i].width.baseVal.value + pad;
    const h = icons[i].height.baseVal.value + pad;
    if(cls != prevClass) {
      if(x > 0) { x = 0; y += rowh; rowh = 0; }
      prevClass = cls;
    }
    icons[i].setAttribute("x", x+"px");
    icons[i].setAttribute("y", y+"px");
    x += w;
    rowh = Math.max(rowh, h);
    if(x >= 640) { x = 0; y += rowh; rowh = 0; }
  }
  document.children[0].classList.add("preview");
});

    ]]>
</script>

<!-- nanosvg doesn't support use, so just cut and paste for now -->
<!-- defs><circle id="poi-bg" r="23"/></defs -->

<style type="text/css">
  <![CDATA[
    .icon { fill: #FFFF00; }
    .poi-bg { fill: #FF0000; }
    .preview .icon { fill: #FFFFFF }
    .preview .food .poi-bg { fill: #F68C30 }
    .preview .shop .poi-bg { fill: #5491F5 }
    .preview .service .poi-bg { fill: #9398DD }
    .preview .lodging .poi-bg { fill: #F06292 }
    .preview .generic .poi-bg { fill: #78909C }
    .preview .medical .poi-bg { fill: #EE675C }
    .preview .culture .poi-bg { fill: #12A7BC }
    .preview .outdoor .poi-bg { fill: #34A853 }
    .preview .public .poi-bg { fill: #1A73E8 }

  ]]>
</style>


<!-- Restaurant: NPS ( was https://github.com/scottdejonge/map-icons/blob/master/src/icons/restaurant.svg ) -->
<!-- other color options: #F87C4C, #F29900 -->
<svg id="restaurant" class="food" width="13.5pt" height="13.5pt" viewBox="-25 -25 50 50">
  <!-- circle cx="2" cy="2" r="23" fill="#000" fill-opacity="0.25"/ -->
  <circle class="poi-bg" cx="0" cy="0" r="23"/>
  <g class="icon" transform="scale(4.25) translate(-209.55, -648.3)">
    <path d="M209.026,647.044c0,0.262-0.237,0.539-0.545,0.539v4.402c0,0.625-0.853,0.625-0.853,0v-4.402   c-0.3,0-0.561-0.23-0.561-0.578v-2.422c0-0.211,0.305-0.219,0.305,0.008v1.791h0.255h0.294h-0.022v-1.805   c0-0.201,0.285-0.209,0.285,0.008v1.797h0.545v-1.805c0-0.199,0.297-0.207,0.297,0.008V647.044z"/>
    <path d="M211.697,645.148v6.836c0,0.611-0.854,0.602-0.854,0v-2.711h-0.455v-4.125   C210.389,644.189,211.697,644.189,211.697,645.148z"/>
  </g>
  <!-- path class="icon" transform="scale(0.65) translate(-25, -25)" d="M22 1.932v11.068h-2v-11c0-.552-.448-1-1-1s-1 .448-1 1v11h-2v-11.036c0-1.287-2-1.243-2-.033v11.069h-2v-10.99c0-1.363-2-1.313-2-.054v14.472c0 2.087 2 3.463 4 3.463v26.109c0 4 6 4 6 0v-26.108c2 0 4-1.662 4-3.227v-14.701c0-1.275-2-1.226-2-.032zm9 3.068v25h2v16c0 4 7 4 7 0v-41c0-5-9-5-9 0z"/ -->
</svg>

<!-- Cafe: https://github.com/scottdejonge/map-icons/blob/master/src/icons/cafe.svg -->
<svg id="cafe" class="food" width="13.5pt" height="13.5pt" viewBox="-25 -25 50 50">
  <circle class="poi-bg" cx="0" cy="0" r="23"/>
  <path class="icon" transform="scale(0.65) translate(-25, -25)" d="M37 7h-28v27c0 2.2 1.8 4 4 4h20c2.2 0 4-1.8 4-4v-5c6.076 0 11-4.925 11-11s-4.924-11-11-11zm0 17v-12c3.314 0 6 2.686 6 6 0 3.313-2.686 6-6 6zm-35 16v2.301c0 1.896 2.069 2.699 4.6 2.699h36.8c2.53 0 4.6-.803 4.6-2.699v-2.301h-46z"/>
</svg>

<!-- Bar: https://github.com/mapbox/maki/blame/main/icons/bar.svg -->
<svg id="bar" class="food" width="13.5pt" height="13.5pt" viewBox="-25 -25 50 50">
  <circle class="poi-bg" cx="0" cy="0" r="23"/>
  <path class="icon" transform="scale(2.0) translate(-7.5, -7.5)" d="M7.5,1c-2,0-7,0.25-6.5,0.75L7,8v4 c0,1-3,0.5-3,2h7c0-1.5-3-1-3-2V8l6-6.25C14.5,1.25,9.5,1,7.5,1z M7.5,2c2.5,0,4.75,0.25,4.75,0.25L11.5,3h-8L2.75,2.25 C2.75,2.25,5,2,7.5,2z"/>
</svg>

<!-- Bakery: https://github.com/mapbox/maki/blame/main/icons/bakery.svg -->
<svg id="bakery" class="food" width="13.5pt" height="13.5pt" viewBox="-25 -25 50 50">
  <circle class="poi-bg" cx="0" cy="0" r="23"/>
  <path class="icon" transform="scale(0.65) translate(-25, -25)" d="M37.833 14.812c.333 5.205-2.192 8.854-2.192 8.854.328-4.009-1.297-9.55-1.297-9.55-1.388-.272-3.606.02-3.606.02.32 4.324-1.879 8.1-3.503 9.49.803-4.795-.475-8.423-.475-8.423-2.197-.554-5.346-.215-5.346-.215.684 5.101-2.13 8.854-2.13 8.854.466-3.556-1.434-8.117-1.434-8.117-1.613-.105-4.183.42-4.183.42 1.355 2.421.273 7.742.273 7.742-.739-4.351-3.223-6.917-3.223-6.917-14.244 6.066-10.492 14.423-3.527 16.912 6.571 2.344 27.744 3.499 37.217-.611 9.474-4.112 2.803-15.667-6.574-18.459z"/>
</svg>

<!-- Grocery: https://github.com/scottdejonge/map-icons/blob/master/src/icons/grocery-or-supermarket.svg -->
<svg id="grocery" class="shop" width="13.5pt" height="13.5pt" viewBox="-25 -25 50 50">
  <circle class="poi-bg" cx="0" cy="0" r="23"/>
  <g class="icon" transform="scale(0.625) translate(-25, -25)">
    <circle cx="44" cy="42" r="4"/>
    <circle cx="15" cy="42" r="4"/>
    <path d="M47 33h-31.229l.667-1.082c.286-.464.37-1.025.233-1.553l-.651-2.506 28.983-1.506c1.099-.056 1.997-1.003 1.997-2.103v-13.25c0-1.1-.9-2-2-2h-33.881l-.391-1.503c-.229-.882-1.025-1.497-1.936-1.497h-6.792c-1.104 0-2 .896-2 2s.896 2 2 2h5.246l5.34 20.545-2.1 3.405c-.38.617-.397 1.392-.043 2.024.352.633 1.02 1.026 1.745 1.026h34.812c1.104 0 2-.896 2-2s-.896-2-2-2z"/>
  </g>
</svg>

<!-- Convenience Store: https://github.com/scottdejonge/map-icons/blob/master/src/icons/convenience-store.svg -->
<svg id="convenience" class="shop" width="13.5pt" height="13.5pt" viewBox="-25 -25 50 50">
  <circle class="poi-bg" cx="0" cy="0" r="23"/>
  <path class="icon" transform="scale(0.65) translate(-25, -25)" d="M41 19h-.272c-.074-.128-.16-.252-.266-.365l-11.544-12.368c.051-.247.082-.503.082-.767 0-1.933-1.424-3.5-3.182-3.5h-3.637c-1.757 0-3.181 1.567-3.181 3.5 0 .264.032.52.082.767l-11.544 12.368c-.105.113-.191.237-.266.365h-5.272v7h2v15c0 2.762 2.239 5 5 5h32c2.762 0 5-2.238 5-5v-15h2v-7h-7zm-18.818-10h3.637l.163-.018 9.349 10.018h-22.662l9.35-10.018.163.018zm-9.182 31c0 1.1-.9 2-2 2s-2-.9-2-2v-12c0-1.1.9-2 2-2s2 .9 2 2v12zm9 0c0 1.1-.9 2-2 2s-2-.9-2-2v-12c0-1.1.9-2 2-2s2 .9 2 2v12zm10 0c0 1.1-.9 2-2 2s-2-.9-2-2v-12c0-1.1.9-2 2-2s2 .9 2 2v12zm9 0c0 1.1-.9 2-2 2s-2-.9-2-2v-12c0-1.1.9-2 2-2s2 .9 2 2v12z"/>
</svg>

<!-- Shopping: https://github.com/scottdejonge/map-icons/blob/master/src/icons/department-store.svg -->
<svg id="shop" class="shop" width="13.5pt" height="13.5pt" viewBox="-25 -25 50 50">
  <circle class="poi-bg" cx="0" cy="0" r="23"/>
  <path class="icon" transform="scale(0.65) translate(-25, -26)" d="M34 11v-3.036c0-2.481-2.109-4.964-4.589-4.964h-8.343c-2.479 0-5.068 2.483-5.068 4.964v3.036h-5.312l-5.688 35h40.187l-5.778-35h-5.409zm-15-3.036c0-.929 1.14-1.964 2.068-1.964h8.343c.927 0 1.589 1.035 1.589 1.964v3.036h-12v-3.036z"/>
</svg>

<!-- Clothes: https://github.com/scottdejonge/map-icons/blob/master/src/icons/clothing-store.svg -->
<svg id="clothes" class="shop" width="13.5pt" height="13.5pt" viewBox="-25 -25 50 50">
  <circle class="poi-bg" cx="0" cy="0" r="23"/>
  <path class="icon" transform="scale(0.7) translate(-25, -26)" d="M47.36 14.75c.08.29-.021.61-.19.86l-5.39 8.02c-.2.31-.62.48-.971.48-.1 0-.38-.02-.489-.05l-4.32-1.06v19c0 .58-.41 1-1 1h-21c-.59 0-1-.42-1-1v-19l-3.88 1.07c-.45.14-.84-.04-1.09-.43l-5.35-8c-.17-.26-.22-.55-.14-.84.07-.3.28-.5.55-.64l10.91-5.16h5c.59 0 1 .41 1 1 0 2.06 2.89 3.52 4.95 3.52s5.05-1.45 5.05-3.52c0-.58.41-1 1-1h5l10.8 5.06c.28.14.48.39.56.69z"/>
</svg>

<!-- Hardware: https://github.com/scottdejonge/map-icons/blob/master/src/icons/hardware-store.svg -->
<svg id="hardware" class="shop" width="13.5pt" height="13.5pt" viewBox="-25 -25 50 50">
  <circle class="poi-bg" cx="0" cy="0" r="23"/>
  <path class="icon" transform="scale(0.6) translate(-24, -26)" d="M12.551 49.485c-.34.596-1.308.69-2.162.2l-5.346-3.043c-.85-.485-1.265-1.362-.924-1.957l22.737-36.043c3.27-5.286-8.16-4.82-10.966-3.264 2.122-3.805 8.885-5.061 13.271-5.378l1.276.083c2.479 1.235 6.034 3.088 8.377 4.642 1.721 2.703 3.536 4.126 6.106 4.119 3.354 2.57-1.885 9.581-5.181 6.334.018-1.604-4.636-5.754-7.896-2.335l-19.292 36.642z"/>
</svg>

<!-- Pharmacy: https://www.svgrepo.com/svg/119406/pharmacy-tool-plus-sign-in-square -->
<svg id="pharmacy" class="shop" width="13.5pt" height="13.5pt" viewBox="-25 -25 50 50">
  <circle class="poi-bg" cx="0" cy="0" r="23"/>
  <path class="icon" transform="scale(0.09) translate(-260, -265)" d="M315.562,449.438h-114.75    c-5.279,0-9.562-4.285-9.562-9.562s4.284-9.562,9.562-9.562h114.75c5.278,0,9.562,4.285,9.562,9.562    S320.841,449.438,315.562,449.438z M340.157,411.188h-5.47h-153h-3.31c-55.615-57.375-56.83-133.875-52.718-181.688h264.766    C392.885,267.75,392.933,363.375,340.157,411.188z M397.092,166.416c-4.915,9.505-13.034,14.717-22.367,18.188l-9.964,16.208    h-69.137l24.557-44.418c-2.562-9.62-1.702-19.383,3.213-28.888c10.51-20.292,35.62-27.884,55.923-17.394    C399.598,120.611,407.592,146.124,397.092,166.416z M277.312,258.187L239.062,258.187 239.062,296.438 200.5,296.438 200.5,334.688 239.062,334.688 239.062,373.062 277.312,373.062 277.312,334.688 315.5,334.688 315.5,296.438 277.312,296.438"/>
</svg>

<!-- Liquor store: https://github.com/scottdejonge/map-icons/blame/master/src/icons/liquor-store.svg -->
<svg id="liquor" class="shop" width="13.5pt" height="13.5pt" viewBox="-25 -25 50 50">
  <circle class="poi-bg" cx="0" cy="0" r="23"/>
  <path class="icon" transform="scale(0.57) translate(-25, -25)" d="M14 16c3 1 5 3.548 5 6.908v25.817c0 .794.803 1.275-.017 1.275h-14.801c-.818 0-1.182-.481-1.182-1.274v-25.818c0-3.368 2-6.154 5-6.908v-12h6v12zm-6-16h6v2h-6zm27.255 4.785c-.457-.065-.808-.436-.808-.883 0-.327.196-.612.481-.774-.285-.15-.481-.678-.481-1.008 0-.496.418-1.12.936-1.12h4.684c.521 0 .936.624.936 1.119 0 .345-.195.747-.492.892.285.155.492.494.492.833 0 .448-.338.847-.793.907l5.965 14.6c.35.949.825 2.016.825 3.064v25.585c0 .976.026 2-1 2h-15.089c-1.042 0-.911-1.024-.911-2v-26c0-1.047.195-1.686.547-2.636l4.708-14.579z"/>
</svg>

<!-- Bicycle store: https://github.com/scottdejonge/map-icons/blob/master/src/icons/bicycle-store.svg -->
<svg id="bike_shop" class="shop" width="13.5pt" height="13.5pt" viewBox="-25 -25 50 50">
  <circle class="poi-bg" cx="0" cy="0" r="23"/>
  <path class="icon" transform="scale(0.7) translate(-25, -27)" d="M40.909 22.651c-1.266 0-2.469.26-3.562.727l-3.076-5.271 2.318-3.973c.315-.542.132-1.238-.409-1.555-.238-.138-.503-.388-.754-.347l-.197-.232h-4.547c-.627 0-1.136.873-1.136 1.5 0 .628.509 1.5 1.136 1.5h2.947l-1.327 2h-13.278l2.652-5h1.051c.627 0 1.136-.372 1.136-1s-.509-1-1.136-1h-5.683c-.626 0-1.136.372-1.136 1s.509 1 1.136 1h1.999l-6.389 11.165c-1.094-.467-2.299-.62-3.564-.62-5.02 0-9.09 4.124-9.09 9.144 0 5.021 4.07 9.117 9.091 9.117s9.091-4.057 9.091-9.078c0-2.94-1.402-5.541-3.57-7.204l2.433-4.166 6.974 11.956.027.038.03.045.023.034.09.104.011.013.031.028.032.026.088.07.037.024.029.019.012.007.004.004.096.047.011.005.023.012.008.002.073.026.068.022.014.004.025.004.044.009.204.021.001.062.004.059h6.891c.562 4 4.378 7.895 9.013 7.895 5.021 0 9.091-4.101 9.091-9.122.001-5.02-4.069-9.121-9.09-9.121zm-25 9.091c0 3.767-3.052 6.819-6.818 6.819-3.766 0-6.818-3.053-6.818-6.819 0-3.765 3.052-6.817 6.818-6.817.847 0 1.655.161 2.403.444l-3.385 5.802c-.316.541-.132 1.237.41 1.555.18.104.377.154.571.154.391 0 .771-.202.983-.563l3.386-5.806c1.496 1.251 2.45 3.13 2.45 5.231zm9.091-2.498l-5.976-10.244h11.953l-5.977 10.244zm7.954-8.685l2.434 4.268c-1.882 1.444-3.182 3.173-3.492 6.173h-4.918l5.976-10.441zm3.587 6.345l2.391 4.096h-4.738c.274-2 1.126-3.075 2.347-4.096zm4.368 11.719c-3.377 0-6.175-2.623-6.716-5.623h6.713l.005-.059.203-.053.046-.023.189-.066.021-.016.113-.058.027-.021.101-.073.078-.066.076-.083.068-.085.057-.092.052-.095.039-.104.031-.104.017-.104.013-.123.003-.035-.005-.064-.014-.124-.023-.106-.033-.104-.052-.113-.027-.059-3.385-5.802c.75-.283 1.557-.444 2.403-.444 3.767 0 6.819 3.083 6.819 6.848.001 3.767-3.052 6.851-6.819 6.851z"/>
</svg>

<!-- Fuel: fa6-solid:gas-pump -->
<svg id="fuel" class="shop" width="13.5pt" height="13.5pt" viewBox="-25 -25 50 50">
  <circle class="poi-bg" cx="0" cy="0" r="23"/>
  <path class="icon" transform="scale(0.055) translate(-230, -280)" d="M32 64C32 28.7 60.7 0 96 0h160c35.3 0 64 28.7 64 64v192h8c48.6 0 88 39.4 88 88v32c0 13.3 10.7 24 24 24s24-10.7 24-24V222c-27.6-7.1-48-32.2-48-62V96l-32-32c-8.8-8.8-8.8-23.2 0-32s23.2-8.8 32 0l77.3 77.3c12 12 18.7 28.3 18.7 45.3V376c0 39.8-32.2 72-72 72s-72-32.2-72-72v-32c0-22.1-17.9-40-40-40h-8v144c17.7 0 32 14.3 32 32s-14.3 32-32 32H32c-17.7 0-32-14.3-32-32s14.3-32 32-32V64zm64 16v96c0 8.8 7.2 16 16 16h128c8.8 0 16-7.2 16-16V80c0-8.8-7.2-16-16-16H112c-8.8 0-16 7.2-16 16z"/>
</svg>

<!-- Dentist: https://github.com/scottdejonge/map-icons/blob/master/src/icons/dentist.svg -->
<svg id="dentist" class="service" width="13.5pt" height="13.5pt" viewBox="-25 -25 50 50">
  <circle class="poi-bg" cx="0" cy="0" r="23"/>
  <path class="icon" transform="scale(0.65) translate(-25, -25)" d="M24.847 27.268c3.547 0 5.191 2.69 5.536 6.512.081.914-.001 2.247-.12 3.791-.398 5.128-.856 11.429 2.557 11.429 2.89 0 4.371-5.54 5.229-11.856.826-6.252-.051-9.363.382-12.14.821-5.26 5.412-9.976 3.994-16.683-.786-3.721-2.836-5.47-4.864-6.207-4.674-1.701-7.694 1.577-12.714 1.577-5.019 0-8.037-3.278-12.713-1.577-2.027.736-4.078 2.486-4.866 6.207-1.415 6.707 3.175 11.422 3.999 16.683.429 2.776-.443 5.888.382 12.14.856 6.316 2.34 11.856 5.227 11.856 3.411 0 2.956-6.301 2.558-11.429-.116-1.545-.204-2.878-.121-3.792.344-3.821 2.012-6.511 5.534-6.511z"/>
</svg>

<!-- Hairdresser: https://github.com/mapbox/maki/blob/main/icons/hairdresser.svg -->
<svg id="scissor" class="service" width="13.5pt" height="13.5pt" viewBox="-25 -25 50 50">
  <circle class="poi-bg" cx="0" cy="0" r="23"/>
  <path class="icon" transform="scale(2.0) translate(-7.5, -7.5)" d="M15,3c0,0-2-0.6-3.5,0.5l-4.3,3C6.4,5.9,5.2,5.2,4,4.8V4c0-1.1-0.9-2-2-2C0.9,2,0,2.9,0,4v1.5 C0,6,0.5,6,0.5,6H2h0.5C4.5,6,6,7.5,6,7.5S4.5,9,2.5,9H2H0.5C0.5,9,0,9,0,9.5V11c0,1.1,0.9,2,2,2c1.1,0,2-0.9,2-2v-0.8 c1.2-0.4,2.4-1.1,3.2-1.7l4.3,3C13,12.6,15,12,15,12L8.5,7.5L15,3z M3,5H2H1V4c0-0.6,0.4-1,1-1c0.6,0,1,0.4,1,1V5z M3,11 c0,0.6-0.4,1-1,1c-0.6,0-1-0.4-1-1v-1h1h1V11z M7.25,8c-0.2761,0-0.5-0.2239-0.5-0.5S6.9739,7,7.25,7s0.5,0.2239,0.5,0.5 S7.5261,8,7.25,8z"/>
</svg>

<!-- Bank: https://github.com/scottdejonge/map-icons/blame/master/src/icons/bank.svg -->
<svg id="bank" class="service" width="13.5pt" height="13.5pt" viewBox="-25 -25 50 50">
  <circle class="poi-bg" cx="0" cy="0" r="23"/>
  <path class="icon" transform="scale(0.725) translate(-22, -25)" d="M34.682 25.801c-1.438-1.134-3.596-2.04-6.474-2.717l-2.208-.521v-9.43l.299.122c1.874.949 2.881 2.745 3.019 4.745h7.516c-.137-4-1.615-6.958-4.434-9.048-1.873-1.389-4.009-2.282-6.4-2.732v-5.22h-7v5.06c-3.237.4-5.804 1.442-7.689 3.136-2.468 2.218-3.701 5.002-3.701 8.354 0 3.673 1.261 6.373 3.783 8.1 1.412.979 3.957 1.888 7.607 2.73v10.216c-1.331-.367-2.374-.971-3.109-1.844-.709-.848-1.184-1.752-1.426-3.752h-7.465c0 4 1.411 6.87 4.234 9.096 2.038 1.606 4.632 2.582 7.766 3.005v3.899h7v-3.833c3.333-.399 6.024-1.463 8.062-3.204 2.643-2.26 3.965-5.1 3.965-8.519 0-3.335-1.115-5.882-3.345-7.643zm-18.014-5.817c-1.215-.66-1.822-1.662-1.822-3 0-1.456.616-2.597 1.848-3.409.65-.429 1.424-.741 2.306-.947v8.224c-1.085-.316-1.868-.606-2.332-.868zm10.475 18.407c-.347.12-.734.219-1.143.306v-8.697c1.205.357 2.156.746 2.848 1.164 1.092.677 1.639 1.64 1.639 2.875-.001 2.116-1.116 3.573-3.344 4.352z"/>
</svg>

<!-- Gym: https://www.svgrepo.com/svg/263770/dumbbell-weight -->
<svg id="gym" class="service" width="13.5pt" height="13.5pt" viewBox="-25 -25 50 50">
  <circle class="poi-bg" cx="0" cy="0" r="23"/>
  <path class="icon" transform="scale(0.065) translate(-240, -240)" d="M472.615,141.585l-46.743-46.743l8.914-8.914c13.272-13.272,13.272-34.788,0-48.06c-13.272-13.272-34.789-13.272-48.06,0 			l-8.914,8.914L331.071,0.038l-48.138,48.14L240.764,6.007l-48.137,48.138l88.911,88.913l-138.523,138.52l-88.911-88.909 			L5.968,240.805l42.169,42.168L0,331.11l46.741,46.741l-8.914,8.916c-13.272,13.272-13.272,34.789,0,48.06s34.789,13.272,48.061,0 			l8.914-8.913l46.665,46.663l48.193-48.082l42.191,42.193l48.062-48.06l-88.912-88.914l138.597-138.598l88.912,88.914 			l48.137-48.138l-42.169-42.17L472.615,141.585z"/>
</svg>

<!-- auto repair (top 5 shop tag value): https://github.com/scottdejonge/map-icons/blame/master/src/icons/car-repair.svg -->
<svg id="auto_repair" class="service" width="13.5pt" height="13.5pt" viewBox="-25 -25 50 50">
  <circle class="poi-bg" cx="0" cy="0" r="23"/>
  <path class="icon" transform="scale(0.65) translate(-22, -26)" d="M21.434 7.689l-2.434 3.311h-5.684c.701 2 2.996 3.886 6.201 3.26.95-.064 4.155-.573 5.483-.26 1.768.424 1.031.426 4.201 2.97l15.799 13.03c.968.855 2.206.505 3.063-.461.857-.968.905-2.684-.063-3.539l-20-16c-1.252-1.005-1.568-2.397-2-4-.84-2.755-3.929-4.965-6.961-4.965-2.443 0-5.072 2.113-6.039 3.965h6l2.434 2.689zm13.72 24.311l-6.182-10.73c-.244-.445-.861-1.27-1.368-1.27h-17.208c-.507 0-1.124.825-1.369 1.27l-6.027 10.73h-.154c-1.015 0-1.846.369-1.846 1.385v9.23c0 1.016.831 1.385 1.846 1.385h2.154v3.23c0 1.524.938 2.77 2.461 2.77h.923c1.524 0 2.616-1.246 2.616-2.77v-3.23h16v3.23c0 1.523 1.092 2.77 2.615 2.77h.923c1.524 0 2.462-1.246 2.462-2.77v-3.23h2.154c1.015 0 1.846-.369 1.846-1.385v-9.23c0-1.016-.831-1.385-1.846-1.385zm-29.077 6.923c-1.275 0-2.308-1.033-2.308-2.308s1.033-2.308 2.308-2.308c1.274 0 2.308 1.033 2.308 2.308s-1.033 2.308-2.308 2.308zm1.846-6.923l3.741-7.828c.227-.454.829-1.172 1.336-1.172h12c.507 0 1.108.718 1.336 1.172l3.741 7.828h-22.154zm24 6.923c-1.274 0-2.308-1.033-2.308-2.308s1.033-2.308 2.308-2.308 2.308 1.033 2.308 2.308-1.034 2.308-2.308 2.308z"/>
</svg>

<!-- Laundry: https://github.com/scottdejonge/map-icons/blame/master/src/icons/laundry.svg -->
<svg id="laundry" class="service" width="13.5pt" height="13.5pt" viewBox="-25 -25 50 50">
  <circle class="poi-bg" cx="0" cy="0" r="23"/>
  <path class="icon" transform="scale(0.6) translate(-25, -25)" d="M6 11v33.74c0 1.47 1.237 3.26 2.76 3.26h33.218c1.519 0 3.022-1.79 3.022-3.26v-33.74h-39zm19.46 26.776c-5.86 0-10.611-4.594-10.611-10.263s4.751-10.263 10.611-10.263 10.611 4.594 10.611 10.263c0 5.67-4.751 10.263-10.611 10.263zm16.518-36.776h-33.218c-1.523 0-2.76 1.033-2.76 2.505v5.495h39v-5.495c0-1.472-1.503-2.505-3.022-2.505zm-22.978 6h-11v-4h11v4zm19.146-.28c-1.249 0-2.258-.979-2.258-2.188 0-1.207 1.009-2.186 2.258-2.186s2.261.979 2.261 2.186c-.001 1.208-1.012 2.188-2.261 2.188z"/>
</svg>

<!-- University: https://github.com/scottdejonge/map-icons/blob/master/src/icons/university.svg -->
<svg id="school" class="culture" width="13.5pt" height="13.5pt" viewBox="-25 -25 50 50">
  <circle class="poi-bg" cx="0" cy="0" r="23"/>
  <path class="icon" transform="scale(0.75) translate(-25, -25)" d="M24.999 27.381c-5.406 0-9.999 1.572-12.999 4.036v4.583h26v-4.583c-3-2.464-7.594-4.036-13.001-4.036zm23.871-2.352l-23.934-11.029-23.924 11.029 3.988 1.825v2.807c-1 .207-1.003.731-1.003 1.354 0 .368.122.799.354 1.057l-1.368 2.928h4.88l-1.356-2.93c.228-.258.415-.638.415-1.006 0-.622-.922-1.197-.922-1.404v-2.337l5 2.246v-.199c3-2.609 8.271-4.265 13.998-4.265 5.729 0 11.002 1.656 14.002 4.265v.199l9.87-4.54z"/>
</svg>

<!-- Museum: https://github.com/scottdejonge/map-icons/blob/master/src/icons/museum.svg -->
<svg id="museum" class="culture" width="13.5pt" height="13.5pt" viewBox="-25 -25 50 50">
  <circle class="poi-bg" cx="0" cy="0" r="23"/>
  <path class="icon" transform="scale(0.65) translate(-25, -27)" d="M9.27 19h3.916l.602 18h-5.039l.521-18zm-3.27 19h38v2h3v3h2v2h-48v-2h2v-3h3v-2zm40-24.188l-20.998-8.812-21.002 8.812v1.188h42v-1.188zm-38 2.188h34v2h-34v-2zm28.736 3h3.914l.607 18h-5.046l.525-18zm-9.152 0h3.914l.6 18h-5.041l.527-18zm-9.154 0h3.915l.596 18h-5.039l.528-18z"/>
</svg>

<!-- fa6-solid:person-praying -->
<svg id="religious" class="culture" width="13.5pt" height="13.5pt" viewBox="-25 -25 50 50">
  <circle class="poi-bg" cx="0" cy="0" r="23"/>
  <path class="icon" transform="scale(0.0625) translate(-224, -266)" d="M352 64a64 64 0 1 0-128 0a64 64 0 1 0 128 0M232.7 264l22.9 31.5c6.5 8.9 16.3 14.7 27.2 16.1s21.9-1.7 30.4-8.7l88-72c17.1-14 19.6-39.2 5.6-56.3s-39.2-19.6-56.3-5.6l-55.2 45.2l-26.2-36C253.6 156.7 228.6 144 202 144c-30.9 0-59.2 17.1-73.6 44.4l-48.6 92.5c-20.2 38.5-9.4 85.9 25.6 111.8l53.2 39.3H72c-22.1 0-40 17.9-40 40s17.9 40 40 40h208c17.3 0 32.6-11.1 38-27.5s-.3-34.4-14.2-44.7L187.7 354z"/>
</svg>

<!-- https://github.com/mapbox/maki/blob/main/icons/religious-christian.svg -->
<svg id="christian" class="culture" width="13.5pt" height="13.5pt" viewBox="-25 -25 50 50">
  <circle class="poi-bg" cx="0" cy="0" r="23"/>
  <path class="icon" transform="scale(2.0) translate(-7.5, -7.5)" d="M6,0.9552V4H3v3h3v8h3V7h3V4H9V1 c0-1-0.9776-1-0.9776-1H6.9887C6.9887,0,6,0,6,0.9552z"/>
</svg>

<!-- https://github.com/mapbox/maki/blob/main/icons/religious-muslim.svg -->
<svg id="muslim" class="culture" width="13.5pt" height="13.5pt" viewBox="-25 -25 50 50">
  <circle class="poi-bg" cx="0" cy="0" r="23"/>
  <path class="icon" transform="scale(2.0) translate(-7.5, -7.5)" d="M12.0962 12.0962C9.55779 14.6346 5.44221 14.6346 2.90381 12.0962C0.365398 9.55779 0.365398 5.44221 2.90381 2.90381C5.44221 0.365398 9.55779 0.365398 12.0962 2.90381C12.2675 3.07512 12.4273 3.25362 12.5754 3.43832C10.5566 1.86336 7.63341 2.00437 5.77643 3.86135C3.76685 5.87092 3.76685 9.12908 5.77643 11.1387C7.63341 12.9956 10.5566 13.1366 12.5754 11.5617C12.4273 11.7464 12.2675 11.9249 12.0962 12.0962Z M10.1 6.5H8L9.7 8L9 10.5L11 9L13 10.5L12.3 8L14 6.5H11.9L11 4.5L10.1 6.5Z"/>
</svg>

<!-- https://upload.wikimedia.org/wikipedia/commons/d/d9/Swastika.svg -->
<svg id="buddhist" class="culture" width="13.5pt" height="13.5pt" viewBox="-25 -25 50 50">
  <circle class="poi-bg" cx="0" cy="0" r="23"/>
  <g transform="scale(-0.25,0.25) translate(-50, -50)" class="icon">
    <polygon points="0,0 20,0 20,40 40,40 40,0 100,0 100,20 60,20 60,40 100,40 100,100 80,100 80,60 60,60 60,100 0,100 0,80 40,80 40,60 0,60 0,0"/>
  </g>
</svg>

<!-- https://github.com/scottdejonge/map-icons/blob/master/src/icons/hindu-temple.svg -->
<svg id="hindu" class="culture" width="13.5pt" height="13.5pt" viewBox="-25 -25 50 50">
  <circle class="poi-bg" cx="0" cy="0" r="23"/>
  <g class="icon" transform="scale(0.65) translate(-25, -25)">
    <path d="M27.509 9.579c.605.554 1.178 1.077 1.608 1.734l.239.365.395-.188c1.098-.525 1.847-1.365 2.571-2.177.546-.612 1.062-1.191 1.709-1.626l.402-.271-.259-.411c-1.127-1.788-2.597-3.276-4.368-4.424l-.371-.241-.284.34c-1.114 1.335-2.347 2.583-3.664 3.709l-.289.248.162.345c.52 1.107 1.348 1.864 2.149 2.597zm6.431 7.567c3.759 0 6.837-1.536 8.667-4.326l.218-.332-.273-.288c-.318-.334-.622-.683-.926-1.032-.907-1.041-1.846-2.117-3.168-2.831l-.461-.249-.227.474c-1.546 3.22-4.539 3.896-6.777 3.896-3.923 0-8.638-2.189-10.734-4.985l-1.65-2.201.771 2.641c1.433 4.919 8.238 9.233 14.56 9.233zm-12.972 8.633c1.562-2.972 1.627-6.452.165-9.607-1.442-3.114-4.111-5.309-7.138-5.875-.641-.12-1.273-.179-1.879-.179-3.676 0-6.082 2.146-8.408 4.22-.847.755-1.647 1.473-2.501 2.082l-.597.436.614.421c.196.127.689.876 1.086 1.446 1.26 1.81 2.31 3.277 3.426 3.277h.001c.393 0 .76-.466 2.039-1.904.539-.605 1.149-1.374 1.476-1.633 1.462-1.161 3.466-2.751 5.655-2.751.295 0 .592.029.881.087 1.013.203 1.625.672 1.87 1.435.502 1.563-.651 3.959-1.64 5.017-.499.535-1.045.92-1.624 1.328-.83.585-1.688 1.191-2.397 2.256l-.23.346.299.29 1.29 1.258c1.11 1.087 2.258 2.211 3.436 3.273l.395.356.332-.416c.747-.937 1.535-1.934 2.308-2.953.208.309.429.625.656.949 1.705 2.438 3.638 5.201 2.377 8.812-.939 2.691-4.11 4.443-7.682 4.186-4.224-.296-7.984-3.902-11.497-11.024-.219-.445-.399-.944-.573-1.427-.407-1.13-.829-2.298-1.811-3.024l-.985-.728.194 1.209c1.031 6.432 4.053 12.639 8.085 16.604 2.439 2.402 6.441 3.954 10.195 3.954 4.337 0 8.984-2.254 9.016-8.58.028-5.925-3.631-9.773-6.572-12.865l-.262-.276zm27.369-5.433c-1.165-2.167-5.545-3.747-7.742-3.266-3.328.726-5.661 2.609-7.72 4.271-2.107 1.702-3.928 3.171-6.358 3.171-.73 0-1.477-.13-2.283-.396l-1.28-.423.694 1.155c1.594 2.653 3.455 3.943 5.689 3.943 1.815-.001 3.673-.871 5.514-1.998l.413 1.224c.935 2.769 5.005 6.876 8.71 6.876l.222-.006c1.617-.072 2.967-.983 3.905-2.637 1.922-3.387 1.705-9.186.236-11.914zm-10.941 4.786c2.732-1.857 5.602-3.764 7.953-3.349 1.023 1.778.605 3.309.061 4.293-1.038 1.873-3.312 3.182-5.532 3.182-1.046 0-2.547-.298-3.759-1.716l-.853-.997c.713-.451 1.424-.934 2.13-1.413z"/>
  </g>
</svg>

<!-- https://github.com/mapbox/maki/blob/main/icons/religious-jewish.svg -->
<svg id="jewish" class="culture" width="13.5pt" height="13.5pt" viewBox="-25 -25 50 50">
  <circle class="poi-bg" cx="0" cy="0" r="23"/>
  <path class="icon" transform="scale(2.0) translate(-7.5, -7.5)" d="M7.50049 0.5L5.49949 4H1L3.49949 7.5L1 11H5.49949L7.50049 14.5L9.50049 11H14L11.5005 7.5L14 4H9.50049L7.50049 0.5Z"/>
</svg>

<!-- https://github.com/mapbox/maki/blob/main/icons/religious-shinto.svg -->
<svg id="shinto" class="culture" width="13.5pt" height="13.5pt" viewBox="-25 -25 50 50">
  <circle class="poi-bg" cx="0" cy="0" r="23"/>
  <path class="icon" transform="scale(2.35) translate(-7.5, -7.5)" d="M12.5,2.5H2.5a.9448.9448,0,0,0-1,1,.9448.9448,0,0,0,1,1H3V12a.9448.9448,0,0,0,1,1,.9448.9448,0,0,0,1-1V8h5v4a.9448.9448,0,0,0,1,1,.9448.9448,0,0,0,1-1V4.5h.5a.9448.9448,0,0,0,1-1,.9448.9448,0,0,0-1-1ZM10,6H8V4.5h2ZM7,6H5V4.5H7Z"/>
</svg>

<!-- Book: https://github.com/mapbox/maki/blame/main/icons/library.svg -->
<svg id="library" class="culture" width="13.5pt" height="13.5pt" viewBox="-25 -25 50 50">
  <circle class="poi-bg" cx="0" cy="0" r="23"/>
  <path class="icon" transform="scale(2.1) translate(-7.5, -7.5)" d="M1.0819,9.9388C0.9871,9.867,1.0007,9.7479,1.0007,9.7479L1.5259,3.5c0,0,0.0082-0.0688,0.0388-0.104 C1.584,3.374,1.6084,3.342,1.6544,3.3232C2.1826,3.1072,5.0537,1.5519,6.5,3c0.2397,0.2777,0.4999,0.6876,0.4999,1v5.2879 c0,0,0.0062,0.1122-0.0953,0.1801c-0.0239,0.016-0.124,0.0616-0.242,0.0026c-2.2253-1.1134-4.711,0.1546-5.3381,0.4871 C1.1987,10.0244,1.1006,9.9531,1.0819,9.9388z M13.6754,9.9577c-0.6271-0.3325-3.1128-1.6005-5.3381-0.4871 c-0.118,0.059-0.2181,0.0134-0.242-0.0026C7.9939,9.4001,8.0001,9.2879,8.0001,9.2879V4c0-0.3124,0.2602-0.7223,0.4999-1 c1.4463-1.4481,4.2991,0.1071,4.8273,0.3232c0.046,0.0188,0.0704,0.0508,0.0897,0.0728C13.4476,3.4312,13.4558,3.5,13.4558,3.5 l0.5435,6.2479c0,0,0.0136,0.1191-0.0812,0.1909C13.8994,9.9531,13.8013,10.0244,13.6754,9.9577z M8.8647,12.6863 c0.0352-0.0085,0.0964-0.0443,0.1179-0.0775c0.0236-0.0364,0.0378-0.0617,0.0423-0.1088c0.0495-0.9379,1.6245-1.8119,4.6477-0.0298 c0.0775,0.0441,0.1666,0.0396,0.2425-0.0155C14.0014,12.392,14,12.2859,14,12.2859v-0.5542c0,0,0.0003-0.0764-0.0272-0.1184 c-0.0205-0.0312-0.0476-0.0643-0.0926-0.0858c-2.0254-1.3145-4.5858-1.8972-5.8854-0.1592 c-0.0181,0.0423-0.0353,0.0613-0.0728,0.0905C7.8654,11.5028,7.7964,11.5,7.7964,11.5H7.2109c0,0-0.069,0.0028-0.1256-0.0412 c-0.0375-0.0292-0.0547-0.0482-0.0728-0.0905c-1.2996-1.738-3.86-1.1828-5.8854,0.1317c-0.045,0.0215-0.0721,0.0546-0.0926,0.0858 c-0.0275,0.042-0.0272,0.1184-0.0272,0.1184v0.5542c0,0-0.0014,0.1061,0.0849,0.1688c0.0759,0.0551,0.165,0.0596,0.2425,0.0155 c3.0232-1.7821,4.5982-0.8806,4.6477,0.0573c0.0045,0.0471,0.0187,0.0724,0.0423,0.1088c0.0215,0.0332,0.0827,0.069,0.1179,0.0775 C6.8645,12.8656,7.9112,12.9363,8.8647,12.6863z"/>
</svg>

<!-- Theatre: https://github.com/mapbox/maki/blob/main/icons/theatre.svg -->
<svg id="theatre" class="culture" width="13.5pt" height="13.5pt" viewBox="-25 -25 50 50">
  <circle class="poi-bg" cx="0" cy="0" r="23"/>
  <path class="icon" transform="scale(2.0) translate(-7.25, -7.25)" d="M2,1c0,0-1,0-1,1v5.1582C1,8.8885,1.354,11,4.5,11H5V8L2.5,9c0,0,0-2.5,2.5-2.5V5 c0-0.7078,0.0868-1.3209,0.5-1.7754C5.8815,2.805,6.5046,1.9674,8.1562,2.7539L9,3.3027V2c0,0,0-1-1-1C7.2922,1,6.0224,2,5,2 S2.7865,1,2,1z M3,3c0.5523,0,1,0.4477,1,1S3.5523,5,3,5S2,4.5523,2,4S2.4477,3,3,3z M7,4c0,0-1,0-1,1v5c0,2,1,4,4,4s4-2,4-4V5 c0-1-1-1-1-1c-0.7078,0-1.9776,1-3,1S7.7865,4,7,4z M8,6c0.5523,0,1,0.4477,1,1S8.5523,8,8,8S7,7.5523,7,7S7.4477,6,8,6z M12,6 c0.5523,0,1,0.4477,1,1s-0.4477,1-1,1s-1-0.4477-1-1S11.4477,6,12,6z M7.5,10H10h2.5c0,0,0,2.5-2.5,2.5S7.5,10,7.5,10z"/>
</svg>

<!-- Greek column: https://thenounproject.com/icon/column-43629/ -->
<svg id="artwork" class="culture" width="13.5pt" height="13.5pt" viewBox="-25 -25 50 50">
  <circle class="poi-bg" cx="0" cy="0" r="23"/>
  <g class="icon" transform="scale(0.058) translate(-350, -260)">
    <path d="m453.04 152.32h-206.08c-3.3594 34.719-26.879 62.719-59.359 73.922v250.88c0 8.9609 6.7188 15.68 15.68 15.68h32.48v-213.92c0-13.441 11.199-24.641 24.641-24.641s23.52 11.199 23.52 24.641v215.04h41.441l-0.003906-215.04c0-13.441 11.199-24.641 24.641-24.641s23.52 11.199 23.52 24.641v215.04h41.441v-215.04c0-13.441 11.199-24.641 23.52-24.641 13.441 0 24.641 11.199 24.641 24.641v215.04h32.48c8.9609 0 15.68-6.7188 15.68-15.68v-250.88c-30.242-11.199-53.762-40.32-58.242-75.039z"/>
    <path d="m546 55.078h-2.2383-384.16c-43.68 0-78.402 34.723-78.402 77.281s34.719 77.281 77.281 77.281c42.559 0 77.281-34.719 77.281-77.281v-1.1211h228.48v1.1211c0 42.559 34.719 77.281 77.281 77.281 42.559 0 77.281-34.719 77.281-77.281-0.003907-41.438-32.484-75.039-72.805-77.281z"/>
	</g>
</svg>

<!-- Attraction: https://github.com/mapbox/maki/blame/main/icons/attraction.svg -->
<svg id="attraction" class="culture" width="13.5pt" height="13.5pt" viewBox="-25 -25 50 50">
  <circle class="poi-bg" cx="0" cy="0" r="23"/>
  <path class="icon" transform="scale(2.25) translate(-7.5, -7.5)"  d="M6,2C5.446,2,5.2478,2.5045,5,3L4.5,4h-2C1.669,4,1,4.669,1,5.5v5C1,11.331,1.669,12,2.5,12h10 c0.831,0,1.5-0.669,1.5-1.5v-5C14,4.669,13.331,4,12.5,4h-2L10,3C9.75,2.5,9.554,2,9,2H6z M2.5,5C2.7761,5,3,5.2239,3,5.5 S2.7761,6,2.5,6S2,5.7761,2,5.5S2.2239,5,2.5,5z M7.5,5c1.6569,0,3,1.3431,3,3s-1.3431,3-3,3s-3-1.3431-3-3S5.8431,5,7.5,5z  M7.5,6.5C6.6716,6.5,6,7.1716,6,8l0,0c0,0.8284,0.6716,1.5,1.5,1.5l0,0C8.3284,9.5,9,8.8284,9,8l0,0C9,7.1716,8.3284,6.5,7.5,6.5 L7.5,6.5z"/>
</svg>

<!-- material:attraction -->
<svg id="theme_park" class="culture" width="13.5pt" height="13.5pt" viewBox="-25 -25 50 50">
  <circle class="poi-bg" cx="0" cy="0" r="23"/>
  <path class="icon" transform="scale(1.8) translate(-12, -12)" d="m5.825 22l1.35-3.05q-.35-.275-.675-.537t-.625-.563q-.2.075-.387.113T5.075 18q-.825 0-1.412-.587T3.075 16q0-.5.213-.913t.587-.687q-.2-.575-.275-1.162T3.525 12t.075-1.237t.275-1.163q-.375-.275-.587-.687T3.075 8q0-.825.588-1.412T5.075 6q.225 0 .413.038t.387.112q.825-.9 1.888-1.5t2.262-.9q.125-.75.688-1.25t1.312-.5t1.313.513t.687 1.237q1.2.3 2.263.888T18.175 6.1q.2-.075.375-.112t.375-.038q.825 0 1.413.588t.587 1.412q0 .5-.2.888t-.55.662q.2.6.275 1.225T20.525 12t-.075 1.263t-.275 1.187q.35.275.55.663t.2.887q0 .825-.587 1.412T18.925 18q-.2 0-.375-.038t-.375-.112q-.3.3-.612.587t-.688.563l1.3 3h-1.85l-.95-2.2q-.35.15-.675.263t-.675.187q-.125.725-.688 1.238T12.026 22t-1.312-.5t-.688-1.25q-.375-.075-.712-.187t-.688-.263l-.95 2.2zm1.9-4.35l1.55-3.5q-.35-.45-.55-1t-.2-1.15q0-1.425 1.038-2.463T12.025 8.5t2.463 1.038T15.525 12q0 .6-.213 1.175t-.587 1.025l1.55 3.45q.225-.2.438-.362t.412-.388q-.125-.2-.162-.437T16.925 16q0-.8.55-1.375t1.35-.625q.15-.5.225-.987T19.125 12t-.075-1.037t-.225-1.013q-.8-.05-1.35-.625t-.55-1.375q0-.225.063-.437t.137-.413q-.725-.725-1.6-1.225t-1.85-.775q-.275.425-.7.663t-.95.237t-.95-.238t-.7-.662q-1.025.275-1.9.788t-1.6 1.262q.075.2.138.413T7.075 8q0 .8-.525 1.363T5.225 10q-.15.5-.225.988T4.925 12T5 13.013t.225.987q.8.05 1.325.625T7.075 16q0 .225-.037.438t-.163.412q.2.225.413.413t.437.387m1.5.85q.275.125.563.225t.587.175q.275-.425.7-.662t.95-.238t.95.238t.7.662q.3-.075.562-.175t.538-.225l-1.45-3.25q-.3.125-.625.188t-.675.062q-.375 0-.713-.075t-.637-.225zm2.8-5q.6 0 1.05-.425t.45-1.075q0-.6-.45-1.05t-1.05-.45q-.65 0-1.075.45T10.525 12q0 .65.425 1.075t1.075.425m0-1.5"/>
</svg>

<!-- unicode U+26EC - https://en.wikipedia.org/wiki/List_of_Japanese_map_symbols -->
<svg id="ruins" class="culture" width="13.5pt" height="13.5pt" viewBox="-25 -25 50 50">
  <circle class="poi-bg" cx="0" cy="0" r="23"/>
  <g class="icon">
    <circle cx="-8" cy="6"  r="5.5"/>
    <circle cx="8"  cy="6"  r="5.5"/>
    <circle cx="0"  cy="-8" r="5.5"/>
  </g>
</svg>

<!-- Tree: https://www.svgrepo.com/svg/107254/tree-silhouette -->
<svg id="tree" class="outdoor" width="13.5pt" height="13.5pt" viewBox="-25 -25 50 50">
  <circle class="poi-bg" cx="0" cy="0" r="23"/>
  <polygon transform="scale(1.0) translate(-15.719, -15.719)" class="icon" points="28.936,26.393 23.07,19.311 27.395,19.311 20.268,10.709 24.591,10.709 15.718,0 6.846,10.709 11.17,10.709 4.043,19.311 8.367,19.311 2.502,26.393 11.377,26.393 11.377,31.438 20.061,31.438 20.061,26.393"/>
</svg>

<!-- Golf: https://github.com/scottdejonge/map-icons/blame/eb12ba43b1684f2b5d2360820aeac5175af130ac/src/activities/land/golf.svg -->
<svg id="golf" class="outdoor" width="13.5pt" height="13.5pt" viewBox="-25 -25 50 50">
  <circle class="poi-bg" cx="0" cy="0" r="23"/>
  <g class="icon" transform="scale(0.075) translate(-300, -290)">
    <path d="M361.15,351.863h-0.606c-19.078,9.082-40.406,14.173-62.903,14.173s-43.826-5.092-62.903-14.173h-0.607 				c0,0-8.13,16.901,8.204,22.901c6,2.667,45,27.667,45,129.667c0,0,2,4.333,10.307,4.333s10.307-4.333,10.307-4.333 				c0-102,39-127,45-129.667C369.28,368.764,361.15,351.863,361.15,351.863z"/>
    <path transform="translate(0, -15)" d="M297.64,351.863c-73.156,0-132.673-59.518-132.673-132.673c0-73.156,59.517-132.674,132.673-132.674 				c73.156,0,132.673,59.518,132.673,132.674C430.313,292.345,370.796,351.863,297.64,351.863z"/>
  </g>
</svg>

<!-- Cemetery: https://github.com/scottdejonge/map-icons/blame/master/src/icons/cemetery.svg -->
<svg id="cemetery" class="outdoor" width="13.5pt" height="13.5pt" viewBox="-25 -25 50 50">
  <circle class="poi-bg" cx="0" cy="0" r="23"/>
  <path transform="scale(0.57) translate(-25, -26)" class="icon" d="M25 1c-9.938 0-18 7.909-18 17.664v30.336h36v-30.336c0-9.755-8.056-17.664-18-17.664z"/>
</svg>

<!-- Lodging: https://github.com/scottdejonge/map-icons/blob/master/src/icons/lodging.svg -->
<svg id="hotel" class="lodging" width="13.5pt" height="13.5pt" viewBox="-25 -25 50 50">
  <circle class="poi-bg" cx="0" cy="0" r="23"/>
  <path class="icon" transform="scale(0.65) translate(-25, -25)" d="M46 32v8h4v-12h-46v-16.34c0-1.123-.869-2.042-2-2.042-1.127 0-2 .918-2 2.042v28.34h4v-8h42zm-35.67-12.148c2.041 0 3.687-1.653 3.687-3.694 0-2.027-1.646-3.675-3.687-3.675-2.038 0-3.683 1.647-3.683 3.675 0 2.04 1.645 3.694 3.683 3.694zm39.67 5.148l-.014-4.871c-.013-1.606-1.36-2.618-2.939-2.809l-28.957-2.833-.215-.009c-1.006 0-1.875.834-1.875 1.835v5.687h-7.453c-1.011 0-1.826.5-1.826 1.499 0 1.015.815 1.501 1.826 1.501h41.453z"/>
</svg>

<!-- Health: https://github.com/scottdejonge/map-icons/blob/master/src/icons/health.svg -->
<svg id="hospital" class="medical" width="13.5pt" height="13.5pt" viewBox="-25 -25 50 50">
  <circle class="poi-bg" cx="0" cy="0" r="23"/>
  <path class="icon" transform="scale(0.6) translate(-25, -25)" d="M49 17c0-.55-.45-1-1-1h-13c-.55 0-1-.45-1-1v-13c0-.55-.45-1-1-1h-16c-.55 0-1 .45-1 1v13c0 .55-.45 1-1 1h-13c-.55 0-1 .45-1 1v16c0 .55.45 1 1 1h13c.55 0 1 .45 1 1v13c0 .55.45 1 1 1h16c.55 0 1-.45 1-1v-13c0-.55.45-1 1-1h13c.55 0 1-.45 1-1v-16z"/>
</svg>

<!-- Doctor: https://github.com/scottdejonge/map-icons/blame/master/src/icons/doctor.svg -->
<svg id="doctor" class="medical" width="13.5pt" height="13.5pt" viewBox="-25 -25 50 50">
  <circle class="poi-bg" cx="0" cy="0" r="23"/>
  <path class="icon" transform="scale(0.6) translate(-25, -27)" d="M42.924 13h-4.924v-5.226c0-3.736-2.948-6.774-6.694-6.774h-12.611c-3.748 0-6.695 3.038-6.695 6.774v5.226h-4.925c-3.356 0-6.075 2.591-6.075 5.937v23.007c0 3.345 2.719 6.056 6.075 6.056h35.849c3.355 0 6.076-2.711 6.076-6.057v-23.006c0-3.346-2.721-5.937-6.076-5.937zm-26.924-5.226c0-1.399 1.292-2.774 2.695-2.774h12.611c1.399 0 2.694 1.375 2.694 2.774v5.226h-18v-5.226zm20 27.226h-7v7h-8v-7h-7v-8h7v-7h8v7h7v8z"/>
</svg>

<!-- generic marker -->
<svg id="generic" class="generic" width="13.5pt" height="13.5pt" viewBox="-25 -25 50 50">
  <circle class="poi-bg" cx="0" cy="0" r="23"/>
  <rect class="icon" x="-8" y="-8" width="16" height="16"/>
</svg>

<!-- water drop: https://www.svgrepo.com/svg/360938/water-drop-f -->
<svg id="drinking_water" class="public" width="13.5pt" height="13.5pt" viewBox="-25 -25 50 50">
  <rect class="poi-bg" x="-22.5" y="-22.5" width="45" height="45" rx="6" ry="6"/>
  <path class="icon" transform="scale(1.4) translate(-7, -11)" d='M7 .565c4.667 6.09 7 10.423 7 13a7 7 0 1 1-14 0c0-2.577 2.333-6.91 7-13z' />
</svg>

<!-- Viewpoint: https://github.com/scottdejonge/map-icons/blob/master/src/icons/natural-feature.svg -->
<svg id="viewpoint" class="public" width="13.5pt" height="13.5pt" viewBox="-25 -25 50 50">
  <rect class="poi-bg" x="-22.5" y="-22.5" width="45" height="45" rx="6" ry="6"/>
  <g class="icon" transform="scale(0.65) translate(-25, -25)">
    <path d="M12 1h9v7h-9zm18.723 28.822c-.873 0-1.723-.891-1.723-1.77v-18.052h14.187l5.829 24.878-.016 1.476v11.056c0 .85-.707 1.59-1.549 1.59h-13.421c-.833 0-1.03-.74-1.03-1.59v-17.41h-2m-11.719-.158c.866 0 1.719-.859 1.719-1.744v-18.098h-14.178l-5.836 24.892.014 1.508v11.053c0 .854.707 1.547 1.548 1.547h13.405c.854 0 1.047-.693 1.047-1.547v-17.453h2"/>
    <path d="M23 10h4v17h-4zm6-9h10v7h-10z"/>
  </g>
</svg>

<!-- Toilet: https://github.com/scottdejonge/map-icons/blob/master/src/icons/toilet.svg -->
<svg id="toilet" class="public" width="13.5pt" height="13.5pt" viewBox="-25 -25 50 50">
  <rect class="poi-bg" x="-22.5" y="-22.5" width="45" height="45" rx="6" ry="6"/>
  <g class="icon" transform="scale(0.65) translate(-25, -25)">
    <path d="M6 47.5c0 1.233.768 2 2 2 1.235 0 2-.767 2-2v-18.5h2v18.5c0 1.231.767 2 2 2s2-.767 2-2v-31.5h1v11.314c0 2.395 3.006 2.395 3 0v-12.153c0-2.646-1.906-4.161-5-4.161h-8c-2.82 0-5 1.219-5 4.087v12.913c0 2 3 2 3 0v-12h1v31.5z"/>
    <circle cx="10.875" cy="5.125" r="4.125"/>
    <circle cx="35.875" cy="5.125" r="4.125"/>
    <path d="M45.913 32.5l-5.909-16.237-.034-.167c0-.237.199-.429.447-.429.211 0 .388.141.435.329l4.017 10.504c.267.601 1.365 1 2.087 1 .965 0 1.065-1.895 1.044-2l-4.017-10.107c-.349-2.321-2.693-4.393-5.368-4.393h-5.235c-2.675 0-5.192 2.072-5.542 4.393l-3.837 10.232c-.087.199 0 1.938 1.044 1.938.811 0 1.89-.314 2.086-1.031l3.875-10.564c.062-.166.229-.292.422-.292.246 0 .445.188.445.424l-.027.151-5.758 16.251c-.012.048 0 1.2 0 1.249 0 .346.836 1.25 1.198 1.25h3.714v12.595c0 1.04.916 1.905 2 1.905s2-.866 2-1.905v-13.105c0-.283 2-.274 2 .009v13c0 1.04.917 2 2 2 1.086 0 2-.961 2-2v-12.5h3.869c.362 0 1.044-.904 1.044-1.25 0-.08.029-1.181 0-1.25z"/>
  </g>
</svg>

<!-- Parking: https://github.com/scottdejonge/map-icons/blob/master/src/icons/parking.svg -->
<svg id="parking" class="public" width="13.5pt" height="13.5pt" viewBox="-25 -25 50 50">
  <rect class="poi-bg" x="-22.5" y="-22.5" width="45" height="45" rx="6" ry="6"/>
  <path class="icon" transform="scale(0.65) translate(-25, -25)" d="M29.617 0h-22.617v50h11v-16h11.617c12.464 0 17.294-9.871 17.294-18.02 0-8.107-4.83-15.98-17.294-15.98zm-3.013 24h-8.604v-15h8.604c5.113 0 9.668 1.128 9.668 7.487-.001 6.398-4.555 7.513-9.668 7.513z"/>
</svg>

<!-- Bus: https://materialdesignicons.com/icon/bus -->
<svg id="bus" class="public" width="13.5pt" height="13.5pt" viewBox="-25 -25 50 50">
  <rect class="poi-bg" x="-22.5" y="-22.5" width="45" height="45" rx="6" ry="6"/>
  <path class="icon" transform="scale(1.8) translate(-12, -12)" d="M18,11H6V6H18M16.5,17A1.5,1.5 0 0,1 15,15.5A1.5,1.5 0 0,1 16.5,14A1.5,1.5 0 0,1 18,15.5A1.5,1.5 0 0,1 16.5,17M7.5,17A1.5,1.5 0 0,1 6,15.5A1.5,1.5 0 0,1 7.5,14A1.5,1.5 0 0,1 9,15.5A1.5,1.5 0 0,1 7.5,17M4,16C4,16.88 4.39,17.67 5,18.22V20A1,1 0 0,0 6,21H7A1,1 0 0,0 8,20V19H16V20A1,1 0 0,0 17,21H18A1,1 0 0,0 19,20V18.22C19.61,17.67 20,16.88 20,16V6C20,2.5 16.42,2 12,2C7.58,2 4,2.5 4,6V16Z"/>
</svg>

<!-- Train: https://materialdesignicons.com/icon/train -->
<svg id="train" class="public" width="13.5pt" height="13.5pt" viewBox="-25 -25 50 50">
  <rect class="poi-bg" x="-22.5" y="-22.5" width="45" height="45" rx="6" ry="6"/>
  <path class="icon" transform="scale(1.8) translate(-12, -12)" d="M12,2C8,2 4,2.5 4,6V15.5A3.5,3.5 0 0,0 7.5,19L6,20.5V21H8.23L10.23,19H14L16,21H18V20.5L16.5,19A3.5,3.5 0 0,0 20,15.5V6C20,2.5 16.42,2 12,2M7.5,17A1.5,1.5 0 0,1 6,15.5A1.5,1.5 0 0,1 7.5,14A1.5,1.5 0 0,1 9,15.5A1.5,1.5 0 0,1 7.5,17M11,10H6V6H11V10M13,10V6H18V10H13M16.5,17A1.5,1.5 0 0,1 15,15.5A1.5,1.5 0 0,1 16.5,14A1.5,1.5 0 0,1 18,15.5A1.5,1.5 0 0,1 16.5,17Z"/>
</svg>

<!-- Hospital: https://github.com/scottdejonge/map-icons/blob/master/src/icons/hospital.svg -->
<!-- blue is the standard road sign color; alternative is #EE675C -->
<svg id="hospital-2" class="public" width="13.5pt" height="13.5pt" viewBox="-25 -25 50 50">
  <rect class="poi-bg" x="-22.5" y="-22.5" width="45" height="45" rx="6" ry="6"/>
  <path class="icon" transform="scale(0.09) translate(-275, -292)" d="M125.73665 92.095291h69.47169V244.72249h161.048V92.095291h83.15551V494.189h-83.15551V323.66759h-161.048V494.189h-83.15551V92.095291z"/>
</svg>

<!-- Metro: https://upload.wikimedia.org/wikipedia/commons/0/0a/WMATA_Metro_Logo_small.svg -->
<svg id="metro" class="public" width="13.5pt" height="13.5pt" viewBox="-25 -25 50 50">
  <rect class="poi-bg" x="-22.5" y="-22.5" width="45" height="45" rx="6" ry="6"/>
  <path class="icon" transform="scale(0.1) translate(-395, -425)" d="M 231.56764,261.50164 L 231.56764,424.97039 L 231.56764,588.43914 L 264.16139,588.43914 L 296.75514,588.43914 L 296.81764,474.84539 L 296.91139,361.28289 L 327.78639,469.15789 C 344.77761,528.48562 359.43739,579.585 360.34889,582.72039 L 362.00514,588.43914 L 394.53639,588.43914 L 427.06764,588.43914 L 428.72389,582.72039 C 429.63538,579.58499 444.29514,528.48563 461.28639,469.15789 L 492.16139,361.28289 L 492.22389,474.84539 L 492.31764,588.43914 L 524.91139,588.43914 L 557.50514,588.43914 L 557.50514,424.97039 L 557.50514,261.50164 L 508.59889,261.50164 L 459.72389,261.53289 L 427.22389,370.06414 C 409.35625,429.76726 394.69872,478.71144 394.63014,478.81414 C 394.56153,478.9169 379.826,430.05662 361.91139,370.25164 L 329.34889,261.53289 L 280.47389,261.50164 L 231.56764,261.50164 z "/>
</svg>

<!-- Tram: https://materialdesignicons.com/icon/tram -->
<svg id="tram" class="public" width="13.5pt" height="13.5pt" viewBox="-25 -25 50 50">
  <rect class="poi-bg" x="-22.5" y="-22.5" width="45" height="45" rx="6" ry="6"/>
  <path class="icon" transform="scale(1.8) translate(-12, -12)" d="M19,16.94V8.5C19,5.71 16.39,5.1 13,5L13.75,3.5H17V2H7V3.5H11.75L11,5C7.86,5.11 5,5.73 5,8.5V16.94C5,18.39 6.19,19.6 7.59,19.91L6,21.5V22H8.23L10.23,20H14L16,22H18V21.5L16.5,20H16.42C18.11,20 19,18.63 19,16.94M12,18.5A1.5,1.5 0 0,1 10.5,17A1.5,1.5 0 0,1 12,15.5A1.5,1.5 0 0,1 13.5,17A1.5,1.5 0 0,1 12,18.5M17,14H7V9H17V14Z"/>
</svg>

<!-- Ferry: https://materialdesignicons.com/icon/ferry -->
<svg id="ferry" class="public" width="13.5pt" height="13.5pt" viewBox="-25 -25 50 50">
  <rect class="poi-bg" x="-22.5" y="-22.5" width="45" height="45" rx="6" ry="6"/>
  <path class="icon" transform="scale(1.6) translate(-12, -12)" d="M6 6h12v3.96L12 8L6 9.96M3.94 19H4c1.6 0 3-.88 4-2c1 1.12 2.4 2 4 2s3-.88 4-2c1 1.12 2.4 2 4 2h.05l1.9-6.69c.08-.25.05-.53-.06-.77c-.13-.24-.34-.42-.6-.5L20 10.62V6a2 2 0 0 0-2-2h-3V1H9v3H6a2 2 0 0 0-2 2v4.62l-1.29.42c-.26.08-.47.26-.6.5c-.11.24-.14.52-.06.77M20 21c-1.39 0-2.78-.47-4-1.33c-2.44 1.71-5.56 1.71-8 0C6.78 20.53 5.39 21 4 21H2v2h2c1.37 0 2.74-.35 4-1c2.5 1.3 5.5 1.3 8 0c1.26.65 2.62 1 4 1h2v-2z"/>
</svg>

<!-- Campground: https://github.com/scottdejonge/map-icons/blame/master/src/icons/campground.svg -->
<svg id="campground" class="public" width="13.5pt" height="13.5pt" viewBox="-25 -25 50 50">
  <rect class="poi-bg" x="-22.5" y="-22.5" width="45" height="45" rx="6" ry="6"/>
  <path transform="scale(0.75) translate(-25, -24)" class="icon" d="M25 6c-1.263 0-1.834.616-2.21 1.286l-15.71 29.572h-3.395c-1.482 0-2.685 1.145-2.685 2.571 0 1.423 1.203 2.57 2.685 2.57h42.632c1.481 0 2.685-1.147 2.685-2.57 0-1.427-1.203-2.571-2.685-2.571h-3.397l-15.709-29.573c-.377-.669-.947-1.285-2.211-1.285zm0 12.857l8.842 18.001h-17.684l8.842-18.001z"/>
</svg>

<!-- Trailhead: https://upload.wikimedia.org/wikipedia/commons/4/48/Map_symbols_US_NPS.svg -->
<svg id="trailhead" class="public" width="13.5pt" height="13.5pt" viewBox="-25 -25 50 50">
  <rect class="poi-bg" x="-22.5" y="-22.5" width="45" height="45" rx="6" ry="6"/>
  <g transform="scale(5) translate(-194, -820.5)" class="icon">
    <circle cx="195.023" cy="817.249" r="0.628"/>
    <path d="M194.435,817.744c0,0-0.361-0.051-0.712,0.466c0,0-0.124,0.104-0.228,0.454l-0.506,1.373   c0,0-0.155,0.238,0.062,0.703l-0.496,1.549l-0.671,1.746l0.558,0.454l0.775-1.478l0.599-1.27l0.392,0.443l0.599,2.283l0.795-0.154   l-0.506-2.449l-0.723-1.518l0.434-0.723l0.279,0.464l1.022,0.455l-2.251,3.677l0.269,0.206l2.313-3.749l0.134,0.073l0.3-0.362   l-1.425-0.971c0,0-0.217-1.333-0.63-1.57C194.816,817.847,194.641,817.724,194.435,817.744z"/>
    <polygon points="193.543,817.569 192.759,819.459 192.118,819.21 193.027,817.363"/>
  </g>
</svg>

<!-- Information:  -->
<svg id="information" class="public" width="13.5pt" height="13.5pt" viewBox="-25 -25 50 50">
  <rect class="poi-bg" x="-22.5" y="-22.5" width="45" height="45" rx="6" ry="6"/>
  <g transform="scale(0.1) translate(-350, -280)" class="icon">
    <path d="m371.45 104.85c21.148-1.0039 39.105 15.336 40.098 36.484 1.0039 21.16-15.336 39.121-36.484 40.109-21.148 1.0039-39.105-15.336-40.109-36.496-0.99219-21.148 15.348-39.105 36.496-40.098z" fill-rule="evenodd"/>
    <path d="m295.79 280.95-7.168-18.977c-0.39062-1.0547-0.25-2.1328 0.39062-3.0625 16.453-23.395 41.355-44.543 71.824-41.566 19.793 1.9062 33.422 20.684 29.141 40.086-11.07 50.141-22.93 100.1-34 150.23-1.5078 6.8281 4.9688 12.652 11.598 10.441 11.297-3.7773 21.852-18.25 28.691-27.574 1.5547-2.1211 4.832-1.668 5.7734 0.78906l7.1406 18.965c0.40234 1.0547 0.27734 2.1445-0.375 3.0742-16.465 23.395-41.355 44.527-71.84 41.555-19.781-1.9219-33.422-20.672-29.129-40.086 11.07-50.141 22.93-100.09 33.988-150.23 1.5078-6.8281-4.957-12.652-11.586-10.43-11.297 3.7656-21.836 18.223-28.703 27.562-1.5547 2.1211-4.832 1.668-5.75-0.77734z" fill-rule="evenodd"/>
  </g>
</svg>

<!-- Wikipedia  -->
<svg id="wikipedia" class="public" width="13.5pt" height="13.5pt" viewBox="-25 -25 50 50">
  <rect class="poi-bg" x="-22.5" y="-22.5" width="45" height="45" rx="6" ry="6"/>
  <g transform="scale(1.95) translate(-12, -11.7)" class="icon">
    <path d="m14.97 18.95l-2.56-6.03c-1.02 1.99-2.14 4.08-3.1 6.03c-.01.01-.47 0-.47 0C7.37 15.5 5.85 12.1 4.37 8.68C4.03 7.84 2.83 6.5 2 6.5v-.45h5.06v.45c-.6 0-1.62.4-1.36 1.05c.72 1.54 3.24 7.51 3.93 9.03c.47-.94 1.8-3.42 2.37-4.47c-.45-.88-1.87-4.18-2.29-5c-.32-.54-1.13-.61-1.75-.61c0-.15.01-.25 0-.44l4.46.01v.4c-.61.03-1.18.24-.92.82c.6 1.24.95 2.13 1.5 3.28c.17-.34 1.07-2.19 1.5-3.16c.26-.65-.13-.91-1.21-.91c.01-.12.01-.33.01-.43c1.39-.01 3.48-.01 3.85-.02v.42c-.71.03-1.44.41-1.82.99L13.5 11.3c.18.51 1.96 4.46 2.15 4.9l3.85-8.83c-.3-.72-1.16-.87-1.5-.87v-.45l4 .03v.42c-.88 0-1.43.5-1.75 1.25c-.8 1.79-3.25 7.49-4.85 11.2h-.43Z"/>
  </g>
</svg>

<!-- peak -->
<svg id="peak" class="other" width="13.5pt" height="13.5pt" viewBox="-25 -25 50 50">
  <path fill="#000000" d="M -15 10l30 0l-15 -20z"/>
</svg>

<!-- Spring: https://upload.wikimedia.org/wikipedia/commons/4/48/Map_symbols_US_NPS.svg -->
<svg id="spring" class="other" width="13.5pt" height="13.5pt" viewBox="-25 -25 50 50">
  <g transform="scale(5) translate(-315.5, -597.8)" fill="none" stroke="#FF0000">
    <circle stroke-width="0.9" cx="316.619" cy="596.252" r="1.114"/>
    <path stroke-width="0.9" d="M316.021,597.2c0,0-0.281,0.17-0.574,0.122c0,0-0.656-0.039-0.752,0.401   c0,0-0.027,0.212,0.179,0.593c0,0,0.265,0.808-0.042,1.059c0,0-0.168,0.206-0.898,0.083c0,0-0.359,0.03-0.249,0.505   c0,0,0.122,0.271-0.141,0.582l-0.302,0.418"/>
  </g>
</svg>

<!-- Cave -->
<svg id="cave" class="other" width="13.5pt" height="13.5pt" viewBox="-25 -25 50 50">
  <g transform="scale(-2, 1.75) translate(-12, -12.5)">
    <path d="M15,20 L20,20 L12,3 L8,13 L6,9 L3,20 L10,20 C10,16 10.34,13 12.5,13 C14.66,13 15,16 15,20 Z"/>
  </g>
</svg>

<!-- Mine: https://wiki.openstreetmap.org/wiki/Tag:man_made%3Dadit -->
<svg id="mine" class="other" width="13.5pt" height="13.5pt" viewBox="-25 -25 50 50">
  <g transform="scale(0.7) translate(-30 -30)" fill="#000000" stroke-width="5" >
    <path fill="none" stroke="#000000" d="M 52,52 16,16"/>
    <path fill="none" stroke="#000000" d="M 12,52 48,16"/>
    <path d="m 38,13 7,-7 12,12 0,7 -7,0 z"/>
    <path d="m 19,6 7,7 c -5.183487,3.928605 -9.442936,8.473236 -13,13.486123 L 6,20 C 9.4503786,14.554256 14.020749,10.096739 19,6 z" />
  </g>
</svg>

<svg id="abandoned_mine" class="other" width="13.5pt" height="13.5pt" viewBox="-25 -25 50 50">
  <g transform="scale(0.7, -0.7) translate(-30 -30)" fill="#555" stroke-width="5" >
    <path fill="none" stroke="#555" d="M 52,52 16,16"/>
    <path fill="none" stroke="#555" d="M 12,52 48,16"/>
    <path d="m 38,13 7,-7 12,12 0,7 -7,0 z"/>
    <path d="m 19,6 7,7 c -5.183487,3.928605 -9.442936,8.473236 -13,13.486123 L 6,20 C 9.4503786,14.554256 14.020749,10.096739 19,6 z" />
  </g>
</svg>

<!-- one way arrow -->
<svg id="arrow" class="other" width="13.5pt" height="13.5pt" viewBox="-25 -25 50 50">
  <path class="poi-bg" transform="rotate(90) scale(0.25) translate(-105, -210)" d="m 169.26688,222.66539 -83.4725,0 5.14,15.41125 c 0.16375,0.4925 0.2525,1.01875 0.2525,1.56625 0,2.73875 -2.22,4.9575 -4.9575,4.9575 -1.03875,0 -2.0025,-0.31875 -2.79875,-0.865 l -48.56875,-33.845 48.56875,-33.845 c 0.79625,-0.545 1.76,-0.865 2.79875,-0.865 2.7375,0 4.9575,2.22 4.9575,4.9575 0,0.5475 -0.0887,1.07375 -0.2525,1.56625 l -5.14,15.41125 83.4725,0 0,25.55 z"/>
</svg>

<!-- Interstate shield: https://upload.wikimedia.org/wikipedia/commons/f/fa/I-blank.svg -->
<svg id="us-interstate" class="other" width="13.5pt" height="13.5pt" viewBox="-25 -25 50 50">
  <g transform="scale(0.075) translate(-300, -300)">
    <g transform="matrix(0.9983361,0,0,0.9983377,0.4991681,0.4986858)" fill="#ffffff" stroke="#000000" stroke-width="1">
      <path d="M 80.75293,0 C 115.42871,10.583496 152.23779,16.276856 190.37695,16.276856 C 228.51563,16.276856 265.32422,10.583496 300,0.0004883 C 334.67578,10.583496 371.48438,16.276856 409.62305,16.276856 C 447.76172,16.276856 484.57129,10.583496 519.24707,0 C 569.8125,63.908203 600,144.67822 600,232.5 C 600,413.92383 471.16992,565.25391 300,599.99902 C 128.83008,565.25391 0,413.92383 0,232.5 C 0,144.67822 30.187988,63.907715 80.75293,0 z " />
      <path d="M 80.75293,0 C 115.42871,10.583496 152.23779,16.276856 190.37695,16.276856 C 228.51563,16.276856 265.32422,10.583496 300,0.0004883 C 334.67578,10.583496 371.48438,16.276856 409.62305,16.276856 C 447.76172,16.276856 484.57129,10.583496 519.24707,0 C 569.8125,63.908203 600,144.67822 600,232.5 C 600,413.92383 471.16992,565.25391 300,599.99902 C 128.83008,565.25391 0,413.92383 0,232.5 C 0,144.67822 30.187988,63.907715 80.75293,0 z " />
    </g>
    <path fill="#003f87" transform="matrix(1.0070935,0,0,1.0102847,-2.1280324,-3.66885)" d="M 15,232.5 C 15,200.521 19.169434,169.51611 26.994629,139.99902 L 573.00586,139.99902 C 580.83008,169.51611 585,200.521 585,232.5 C 585,405.60547 462.82617,550.17188 300,584.67676 C 137.17432,550.17188 15,405.60547 15,232.5 z " />
    <path fill="#af1e2d" transform="matrix(1.0125461,0,0,1.0271486,-3.7638021,-3.1017481)" d="M 31.324219,124.99902 C 43.579102,85.77832 62.362793,49.44043 86.402832,17.259766 C 119.50439,26.392578 154.37061,31.272461 190.37695,31.272461 C 228.4375,31.272461 265.22461,25.820801 300,15.654785 C 334.77539,25.820801 371.5625,31.272461 409.62305,31.272461 C 445.62891,31.272461 480.49609,26.392578 513.59766,17.259766 C 537.63672,49.44043 556.4209,85.77832 568.67578,124.99902 L 31.324219,124.99902 L 31.324219,124.99902 z " />
  </g>
</svg>

<svg id="shield" class="other" width="13.5pt" height="13.5pt" viewBox="-25 -25 50 50">
  <rect fill="#FF0000" x="-22.5" y="-22.5" width="45" height="45"/>
</svg>

<!-- traffic light: https://www.svgrepo.com/svg/407686/vertical-traffic-light -->
<svg id="traffic_light" class="other" width="13.5pt" height="13.5pt" viewBox="-25 -25 50 50">
  <g transform="scale(1.3) translate(-18, -18)">
    <path fill="#31373D" d="M27 32a4 4 0 0 1-4 4H13a4 4 0 0 1-4-4V4a4 4 0 0 1 4-4h10a4 4 0 0 1 4 4v28z"/>
    <path fill="#77B255" d="M17.999 25a4 4 0 1 1 0 8a4 4 0 0 1 0-8z"></path>
    <path fill="#FFCC4D" d="M17.999 14a4 4 0 1 1 0 8a4 4 0 0 1 0-8z"/>
    <path fill="#DD2E44" d="M17.999 3a4 4 0 1 1 0 8a4 4 0 0 1 0-8z"/>
  </g>
</svg>

</svg>
